<mxfile host="Electron" agent="Mozilla/5.0 (Windows NT 10.0; Win64; x64) AppleWebKit/537.36 (KHTML, like Gecko) draw.io/28.0.4 Chrome/138.0.7204.97 Electron/37.2.1 Safari/537.36" version="28.0.4" pages="5">
  <diagram id="C5RBs43oDa-KdzZeNtuy" name="Story Progression">
    <mxGraphModel dx="515" dy="730" grid="1" gridSize="10" guides="1" tooltips="1" connect="1" arrows="1" fold="1" page="1" pageScale="1" pageWidth="827" pageHeight="1169" math="0" shadow="0">
      <root>
        <mxCell id="WIyWlLk6GJQsqaUBKTNV-0" />
        <mxCell id="WIyWlLk6GJQsqaUBKTNV-1" parent="WIyWlLk6GJQsqaUBKTNV-0" />
        <mxCell id="a7C4wrWiQvOayHZ97LBC-3" value="&lt;div&gt;&lt;span style=&quot;font-size: 9px; background-color: transparent; color: light-dark(rgb(0, 0, 0), rgb(255, 255, 255));&quot;&gt;sensitive persistent.variablename == True&lt;/span&gt;&lt;/div&gt;&lt;div&gt;&lt;font style=&quot;font-size: 9px;&quot;&gt;## enables the selection only if &quot;variablename&quot; is true&lt;br&gt;## disables the selection if &quot;variablename&quot; is false&lt;br&gt;&lt;br&gt;sensitive persistent.variablename == True and persistent.variablename2 == True and persistent.variablename3 == True and...&lt;br&gt;## assign multiple values to be validated in order to enable the selection&lt;/font&gt;&lt;/div&gt;" style="rounded=1;whiteSpace=wrap;html=1;" parent="WIyWlLk6GJQsqaUBKTNV-1" vertex="1">
          <mxGeometry x="480" y="10" width="330" height="110" as="geometry" />
        </mxCell>
        <mxCell id="t5PwKfoNj4lcewj998Gc-20" style="edgeStyle=orthogonalEdgeStyle;rounded=0;orthogonalLoop=1;jettySize=auto;html=1;exitX=0.5;exitY=1;exitDx=0;exitDy=0;entryX=0.5;entryY=0;entryDx=0;entryDy=0;" parent="WIyWlLk6GJQsqaUBKTNV-1" source="t5PwKfoNj4lcewj998Gc-21" target="t5PwKfoNj4lcewj998Gc-28" edge="1">
          <mxGeometry relative="1" as="geometry" />
        </mxCell>
        <mxCell id="t5PwKfoNj4lcewj998Gc-21" value="Chapter 2" style="rounded=1;whiteSpace=wrap;html=1;fontSize=12;glass=0;strokeWidth=1;shadow=0;fillColor=#f8cecc;strokeColor=#b85450;" parent="WIyWlLk6GJQsqaUBKTNV-1" vertex="1">
          <mxGeometry x="20" y="140" width="120" height="40" as="geometry" />
        </mxCell>
        <mxCell id="t5PwKfoNj4lcewj998Gc-22" style="edgeStyle=orthogonalEdgeStyle;rounded=0;orthogonalLoop=1;jettySize=auto;html=1;exitX=0.5;exitY=1;exitDx=0;exitDy=0;entryX=0.5;entryY=0;entryDx=0;entryDy=0;" parent="WIyWlLk6GJQsqaUBKTNV-1" source="t5PwKfoNj4lcewj998Gc-23" target="t5PwKfoNj4lcewj998Gc-21" edge="1">
          <mxGeometry relative="1" as="geometry" />
        </mxCell>
        <mxCell id="t5PwKfoNj4lcewj998Gc-23" value="Chapter 1" style="rounded=1;whiteSpace=wrap;html=1;fontSize=12;glass=0;strokeWidth=1;shadow=0;fillColor=#f8cecc;strokeColor=#b85450;" parent="WIyWlLk6GJQsqaUBKTNV-1" vertex="1">
          <mxGeometry x="20" y="80" width="120" height="40" as="geometry" />
        </mxCell>
        <mxCell id="t5PwKfoNj4lcewj998Gc-24" style="edgeStyle=orthogonalEdgeStyle;rounded=0;orthogonalLoop=1;jettySize=auto;html=1;exitX=0.5;exitY=1;exitDx=0;exitDy=0;entryX=0.5;entryY=0;entryDx=0;entryDy=0;" parent="WIyWlLk6GJQsqaUBKTNV-1" source="t5PwKfoNj4lcewj998Gc-25" target="t5PwKfoNj4lcewj998Gc-23" edge="1">
          <mxGeometry relative="1" as="geometry" />
        </mxCell>
        <mxCell id="t5PwKfoNj4lcewj998Gc-25" value="Chapter 0" style="rounded=1;whiteSpace=wrap;html=1;fontSize=12;glass=0;strokeWidth=1;shadow=0;fillColor=#fff2cc;strokeColor=#d6b656;" parent="WIyWlLk6GJQsqaUBKTNV-1" vertex="1">
          <mxGeometry x="20" y="20" width="120" height="40" as="geometry" />
        </mxCell>
        <mxCell id="t5PwKfoNj4lcewj998Gc-26" value="Story&lt;div&gt;&lt;div&gt;&lt;span style=&quot;background-color: transparent; color: light-dark(rgb(0, 0, 0), rgb(255, 255, 255));&quot;&gt;Progression&lt;/span&gt;&lt;/div&gt;&lt;/div&gt;" style="rhombus;whiteSpace=wrap;html=1;fillColor=#dae8fc;strokeColor=#6c8ebf;perimeterSpacing=10;shadow=0;rounded=1;strokeWidth=3;fontStyle=1" parent="WIyWlLk6GJQsqaUBKTNV-1" vertex="1">
          <mxGeometry x="340" y="20" width="121" height="120" as="geometry" />
        </mxCell>
        <mxCell id="t5PwKfoNj4lcewj998Gc-27" style="edgeStyle=orthogonalEdgeStyle;rounded=0;orthogonalLoop=1;jettySize=auto;html=1;exitX=0.5;exitY=1;exitDx=0;exitDy=0;entryX=0.5;entryY=0;entryDx=0;entryDy=0;" parent="WIyWlLk6GJQsqaUBKTNV-1" source="t5PwKfoNj4lcewj998Gc-28" target="t5PwKfoNj4lcewj998Gc-30" edge="1">
          <mxGeometry relative="1" as="geometry" />
        </mxCell>
        <mxCell id="t5PwKfoNj4lcewj998Gc-28" value="Chapter 3" style="rounded=1;whiteSpace=wrap;html=1;fontSize=12;glass=0;strokeWidth=1;shadow=0;fillColor=#f8cecc;strokeColor=#b85450;" parent="WIyWlLk6GJQsqaUBKTNV-1" vertex="1">
          <mxGeometry x="20" y="200" width="120" height="40" as="geometry" />
        </mxCell>
        <mxCell id="t5PwKfoNj4lcewj998Gc-29" style="edgeStyle=orthogonalEdgeStyle;rounded=0;orthogonalLoop=1;jettySize=auto;html=1;exitX=0.5;exitY=1;exitDx=0;exitDy=0;entryX=0.5;entryY=0;entryDx=0;entryDy=0;" parent="WIyWlLk6GJQsqaUBKTNV-1" source="t5PwKfoNj4lcewj998Gc-30" target="t5PwKfoNj4lcewj998Gc-32" edge="1">
          <mxGeometry relative="1" as="geometry" />
        </mxCell>
        <mxCell id="t5PwKfoNj4lcewj998Gc-30" value="Chapter 4" style="rounded=1;whiteSpace=wrap;html=1;fontSize=12;glass=0;strokeWidth=1;shadow=0;fillColor=#f8cecc;strokeColor=#b85450;" parent="WIyWlLk6GJQsqaUBKTNV-1" vertex="1">
          <mxGeometry x="20" y="260" width="120" height="40" as="geometry" />
        </mxCell>
        <mxCell id="t5PwKfoNj4lcewj998Gc-31" style="edgeStyle=orthogonalEdgeStyle;rounded=0;orthogonalLoop=1;jettySize=auto;html=1;exitX=0.5;exitY=1;exitDx=0;exitDy=0;entryX=0.5;entryY=0;entryDx=0;entryDy=0;" parent="WIyWlLk6GJQsqaUBKTNV-1" source="t5PwKfoNj4lcewj998Gc-32" target="t5PwKfoNj4lcewj998Gc-34" edge="1">
          <mxGeometry relative="1" as="geometry" />
        </mxCell>
        <mxCell id="t5PwKfoNj4lcewj998Gc-32" value="Chapter 5" style="rounded=1;whiteSpace=wrap;html=1;fontSize=12;glass=0;strokeWidth=1;shadow=0;fillColor=#f8cecc;strokeColor=#b85450;" parent="WIyWlLk6GJQsqaUBKTNV-1" vertex="1">
          <mxGeometry x="20" y="320" width="120" height="40" as="geometry" />
        </mxCell>
        <mxCell id="t5PwKfoNj4lcewj998Gc-33" style="edgeStyle=orthogonalEdgeStyle;rounded=0;orthogonalLoop=1;jettySize=auto;html=1;exitX=0.5;exitY=1;exitDx=0;exitDy=0;entryX=0.5;entryY=0;entryDx=0;entryDy=0;" parent="WIyWlLk6GJQsqaUBKTNV-1" source="t5PwKfoNj4lcewj998Gc-34" target="t5PwKfoNj4lcewj998Gc-35" edge="1">
          <mxGeometry relative="1" as="geometry" />
        </mxCell>
        <mxCell id="t5PwKfoNj4lcewj998Gc-34" value="Chapter 6" style="rounded=1;whiteSpace=wrap;html=1;fontSize=12;glass=0;strokeWidth=1;shadow=0;fillColor=#f8cecc;strokeColor=#b85450;" parent="WIyWlLk6GJQsqaUBKTNV-1" vertex="1">
          <mxGeometry x="20" y="380" width="120" height="40" as="geometry" />
        </mxCell>
        <mxCell id="t5PwKfoNj4lcewj998Gc-35" value="Chapter 7" style="rounded=1;whiteSpace=wrap;html=1;fontSize=12;glass=0;strokeWidth=1;shadow=0;fillColor=#f8cecc;strokeColor=#b85450;" parent="WIyWlLk6GJQsqaUBKTNV-1" vertex="1">
          <mxGeometry x="20" y="440" width="120" height="40" as="geometry" />
        </mxCell>
        <mxCell id="t5PwKfoNj4lcewj998Gc-57" value="&amp;nbsp; stop music fadeout 1.0&lt;br&gt;&amp;nbsp; window auto&lt;br&gt;&amp;nbsp; $ persistent.cutscene_off = False" style="rounded=0;whiteSpace=wrap;html=1;dashed=1;fillColor=#f5f5f5;strokeColor=#666666;fontColor=#333333;align=left;fontSize=10;" parent="WIyWlLk6GJQsqaUBKTNV-1" vertex="1">
          <mxGeometry x="500" y="160" width="160" height="40" as="geometry" />
        </mxCell>
        <mxCell id="t5PwKfoNj4lcewj998Gc-62" style="edgeStyle=orthogonalEdgeStyle;rounded=0;orthogonalLoop=1;jettySize=auto;html=1;entryX=0;entryY=0.5;entryDx=0;entryDy=0;curved=0;dashed=1;exitX=1;exitY=0.5;exitDx=0;exitDy=0;" parent="WIyWlLk6GJQsqaUBKTNV-1" source="t5PwKfoNj4lcewj998Gc-69" target="t5PwKfoNj4lcewj998Gc-57" edge="1">
          <mxGeometry relative="1" as="geometry">
            <mxPoint x="490.5" y="150.0000000000001" as="sourcePoint" />
          </mxGeometry>
        </mxCell>
        <mxCell id="t5PwKfoNj4lcewj998Gc-68" style="edgeStyle=orthogonalEdgeStyle;rounded=0;orthogonalLoop=1;jettySize=auto;html=1;entryX=0.5;entryY=0;entryDx=0;entryDy=0;" parent="WIyWlLk6GJQsqaUBKTNV-1" source="t5PwKfoNj4lcewj998Gc-65" target="t5PwKfoNj4lcewj998Gc-67" edge="1">
          <mxGeometry relative="1" as="geometry" />
        </mxCell>
        <mxCell id="t5PwKfoNj4lcewj998Gc-65" value="&lt;font style=&quot;font-size: 20px;&quot;&gt;Chapter 0&lt;/font&gt;" style="rounded=1;whiteSpace=wrap;html=1;fontSize=15;glass=0;strokeWidth=4;shadow=0;fillColor=#f8cecc;strokeColor=#b85450;fontStyle=1" parent="WIyWlLk6GJQsqaUBKTNV-1" vertex="1">
          <mxGeometry x="341.25" y="220" width="119" height="40" as="geometry" />
        </mxCell>
        <mxCell id="U5D13geEEuSproZ98-ho-17" style="edgeStyle=orthogonalEdgeStyle;rounded=0;orthogonalLoop=1;jettySize=auto;html=1;exitX=0.5;exitY=1;exitDx=0;exitDy=0;entryX=0.5;entryY=0;entryDx=0;entryDy=0;fillColor=#ffe6cc;strokeColor=light-dark(#000000, #996500);" parent="WIyWlLk6GJQsqaUBKTNV-1" source="t5PwKfoNj4lcewj998Gc-67" target="whxMkYv3ltNgA1qONIYG-0" edge="1">
          <mxGeometry relative="1" as="geometry" />
        </mxCell>
        <mxCell id="U5D13geEEuSproZ98-ho-24" style="edgeStyle=orthogonalEdgeStyle;rounded=0;orthogonalLoop=1;jettySize=auto;html=1;exitX=1;exitY=0.5;exitDx=0;exitDy=0;entryX=0;entryY=0.5;entryDx=0;entryDy=0;" parent="WIyWlLk6GJQsqaUBKTNV-1" source="t5PwKfoNj4lcewj998Gc-67" target="U5D13geEEuSproZ98-ho-23" edge="1">
          <mxGeometry relative="1" as="geometry" />
        </mxCell>
        <mxCell id="t5PwKfoNj4lcewj998Gc-67" value="&lt;div&gt;&lt;span style=&quot;background-color: transparent; color: light-dark(rgb(0, 0, 0), rgb(255, 255, 255));&quot;&gt;chapter_0_start&lt;/span&gt;&lt;/div&gt;" style="rounded=1;whiteSpace=wrap;html=1;fontSize=15;glass=0;strokeWidth=2;shadow=0;fillColor=#d5e8d4;strokeColor=#82b366;fontStyle=1" parent="WIyWlLk6GJQsqaUBKTNV-1" vertex="1">
          <mxGeometry x="330" y="280" width="140.5" height="40" as="geometry" />
        </mxCell>
        <mxCell id="whxMkYv3ltNgA1qONIYG-30" style="edgeStyle=orthogonalEdgeStyle;rounded=0;orthogonalLoop=1;jettySize=auto;html=1;exitX=0.5;exitY=1;exitDx=0;exitDy=0;entryX=0.5;entryY=0;entryDx=0;entryDy=0;" edge="1" parent="WIyWlLk6GJQsqaUBKTNV-1" source="t5PwKfoNj4lcewj998Gc-69" target="t5PwKfoNj4lcewj998Gc-65">
          <mxGeometry relative="1" as="geometry" />
        </mxCell>
        <mxCell id="t5PwKfoNj4lcewj998Gc-69" value="Start() -&amp;gt; label start:" style="rounded=1;whiteSpace=wrap;html=1;fontSize=15;glass=0;strokeWidth=2;shadow=0;fillColor=#d5e8d4;strokeColor=#82b366;fontStyle=1" parent="WIyWlLk6GJQsqaUBKTNV-1" vertex="1">
          <mxGeometry x="320" y="160" width="160" height="40" as="geometry" />
        </mxCell>
        <mxCell id="U5D13geEEuSproZ98-ho-20" style="edgeStyle=orthogonalEdgeStyle;rounded=0;orthogonalLoop=1;jettySize=auto;html=1;exitX=0.5;exitY=1;exitDx=0;exitDy=0;entryX=0.5;entryY=0;entryDx=0;entryDy=0;fillColor=#ffe6cc;strokeColor=light-dark(#000000, #996500);" parent="WIyWlLk6GJQsqaUBKTNV-1" source="U5D13geEEuSproZ98-ho-16" target="U5D13geEEuSproZ98-ho-18" edge="1">
          <mxGeometry relative="1" as="geometry" />
        </mxCell>
        <mxCell id="U5D13geEEuSproZ98-ho-26" style="edgeStyle=orthogonalEdgeStyle;rounded=0;orthogonalLoop=1;jettySize=auto;html=1;exitX=1;exitY=0.5;exitDx=0;exitDy=0;entryX=0;entryY=0.5;entryDx=0;entryDy=0;" parent="WIyWlLk6GJQsqaUBKTNV-1" source="U5D13geEEuSproZ98-ho-16" target="U5D13geEEuSproZ98-ho-25" edge="1">
          <mxGeometry relative="1" as="geometry">
            <mxPoint x="520.25" y="780" as="targetPoint" />
          </mxGeometry>
        </mxCell>
        <mxCell id="U5D13geEEuSproZ98-ho-16" value="chapter_0_meetTsukune" style="rounded=1;whiteSpace=wrap;html=1;fontSize=15;glass=0;strokeWidth=2;shadow=0;fillColor=#ffe6cc;strokeColor=#d79b00;fontStyle=1" parent="WIyWlLk6GJQsqaUBKTNV-1" vertex="1">
          <mxGeometry x="301.5" y="520" width="199.5" height="40" as="geometry" />
        </mxCell>
        <mxCell id="whxMkYv3ltNgA1qONIYG-7" style="edgeStyle=orthogonalEdgeStyle;rounded=0;orthogonalLoop=1;jettySize=auto;html=1;exitX=0.5;exitY=1;exitDx=0;exitDy=0;entryX=0.5;entryY=0;entryDx=0;entryDy=0;" edge="1" parent="WIyWlLk6GJQsqaUBKTNV-1" source="U5D13geEEuSproZ98-ho-18" target="whxMkYv3ltNgA1qONIYG-6">
          <mxGeometry relative="1" as="geometry" />
        </mxCell>
        <mxCell id="U5D13geEEuSproZ98-ho-18" value="&lt;div&gt;&lt;span style=&quot;background-color: transparent; color: light-dark(rgb(0, 0, 0), rgb(255, 255, 255));&quot;&gt;chapter_0_tsukuneDrive&lt;/span&gt;&lt;/div&gt;" style="rounded=1;whiteSpace=wrap;html=1;fontSize=15;glass=0;strokeWidth=2;shadow=0;fillColor=#ffe6cc;strokeColor=#d79b00;fontStyle=1" parent="WIyWlLk6GJQsqaUBKTNV-1" vertex="1">
          <mxGeometry x="302.5" y="580" width="198.5" height="40" as="geometry" />
        </mxCell>
        <mxCell id="whxMkYv3ltNgA1qONIYG-20" style="edgeStyle=orthogonalEdgeStyle;rounded=0;orthogonalLoop=1;jettySize=auto;html=1;exitX=1;exitY=0.5;exitDx=0;exitDy=0;entryX=0.5;entryY=0;entryDx=0;entryDy=0;" edge="1" parent="WIyWlLk6GJQsqaUBKTNV-1" source="U5D13geEEuSproZ98-ho-21" target="U5D13geEEuSproZ98-ho-28">
          <mxGeometry relative="1" as="geometry">
            <Array as="points">
              <mxPoint x="450" y="830" />
            </Array>
          </mxGeometry>
        </mxCell>
        <mxCell id="whxMkYv3ltNgA1qONIYG-25" style="edgeStyle=orthogonalEdgeStyle;rounded=0;orthogonalLoop=1;jettySize=auto;html=1;exitX=0;exitY=0.75;exitDx=0;exitDy=0;entryX=0.5;entryY=0;entryDx=0;entryDy=0;" edge="1" parent="WIyWlLk6GJQsqaUBKTNV-1" source="U5D13geEEuSproZ98-ho-21" target="U5D13geEEuSproZ98-ho-27">
          <mxGeometry relative="1" as="geometry">
            <Array as="points">
              <mxPoint x="147" y="840" />
              <mxPoint x="100" y="840" />
            </Array>
          </mxGeometry>
        </mxCell>
        <mxCell id="whxMkYv3ltNgA1qONIYG-26" style="edgeStyle=orthogonalEdgeStyle;rounded=0;orthogonalLoop=1;jettySize=auto;html=1;exitX=0.75;exitY=1;exitDx=0;exitDy=0;entryX=0.75;entryY=0;entryDx=0;entryDy=0;" edge="1" parent="WIyWlLk6GJQsqaUBKTNV-1" source="U5D13geEEuSproZ98-ho-21" target="U5D13geEEuSproZ98-ho-29">
          <mxGeometry relative="1" as="geometry" />
        </mxCell>
        <mxCell id="U5D13geEEuSproZ98-ho-21" value="&lt;b&gt;&lt;font&gt;Question:&lt;br&gt;Tsukune Therapy&lt;/font&gt;&lt;/b&gt;" style="shape=parallelogram;perimeter=parallelogramPerimeter;whiteSpace=wrap;html=1;fixedSize=1;fillColor=#ffe6cc;strokeColor=#d79b00;strokeWidth=2;fontSize=16;" parent="WIyWlLk6GJQsqaUBKTNV-1" vertex="1">
          <mxGeometry x="141.25" y="800" width="239" height="60" as="geometry" />
        </mxCell>
        <mxCell id="U5D13geEEuSproZ98-ho-23" value="&amp;nbsp;&amp;nbsp;$ persistent.quick_menu_display = True" style="rounded=0;whiteSpace=wrap;html=1;dashed=1;fillColor=#f5f5f5;strokeColor=#666666;fontColor=#333333;align=left;fontSize=10;" parent="WIyWlLk6GJQsqaUBKTNV-1" vertex="1">
          <mxGeometry x="490" y="280" width="190" height="40" as="geometry" />
        </mxCell>
        <mxCell id="U5D13geEEuSproZ98-ho-25" value="&amp;nbsp;&amp;nbsp;$ persistent.quick_menu_display = True" style="rounded=0;whiteSpace=wrap;html=1;dashed=1;fillColor=#f5f5f5;strokeColor=#666666;fontColor=#333333;align=left;fontSize=10;" parent="WIyWlLk6GJQsqaUBKTNV-1" vertex="1">
          <mxGeometry x="520.25" y="520" width="190" height="40" as="geometry" />
        </mxCell>
        <mxCell id="whxMkYv3ltNgA1qONIYG-27" style="edgeStyle=orthogonalEdgeStyle;rounded=0;orthogonalLoop=1;jettySize=auto;html=1;exitX=0.5;exitY=1;exitDx=0;exitDy=0;entryX=0;entryY=0.5;entryDx=0;entryDy=0;" edge="1" parent="WIyWlLk6GJQsqaUBKTNV-1" source="U5D13geEEuSproZ98-ho-27" target="vF0wNgT5Vav5AlTbMjVH-10">
          <mxGeometry relative="1" as="geometry" />
        </mxCell>
        <mxCell id="U5D13geEEuSproZ98-ho-27" value="Therapy is bullshit&lt;br&gt;&lt;br&gt;&lt;div&gt;(A)&lt;br&gt;$ lovePoints_Tsukune-=20&lt;/div&gt;" style="rounded=0;whiteSpace=wrap;html=1;fillColor=#ffe6cc;strokeColor=#d79b00;fontStyle=1" parent="WIyWlLk6GJQsqaUBKTNV-1" vertex="1">
          <mxGeometry x="20" y="880" width="160" height="60" as="geometry" />
        </mxCell>
        <mxCell id="whxMkYv3ltNgA1qONIYG-29" style="edgeStyle=orthogonalEdgeStyle;rounded=0;orthogonalLoop=1;jettySize=auto;html=1;exitX=0.25;exitY=1;exitDx=0;exitDy=0;entryX=1;entryY=0.5;entryDx=0;entryDy=0;" edge="1" parent="WIyWlLk6GJQsqaUBKTNV-1" source="U5D13geEEuSproZ98-ho-28" target="vF0wNgT5Vav5AlTbMjVH-10">
          <mxGeometry relative="1" as="geometry" />
        </mxCell>
        <mxCell id="U5D13geEEuSproZ98-ho-28" value="Alex needs therapy&lt;br&gt;&lt;br&gt;&lt;div&gt;(C)&lt;/div&gt;" style="rounded=0;whiteSpace=wrap;html=1;fillColor=#ffe6cc;strokeColor=#d79b00;fontStyle=1" parent="WIyWlLk6GJQsqaUBKTNV-1" vertex="1">
          <mxGeometry x="390" y="880" width="120" height="60" as="geometry" />
        </mxCell>
        <mxCell id="whxMkYv3ltNgA1qONIYG-28" style="edgeStyle=orthogonalEdgeStyle;rounded=0;orthogonalLoop=1;jettySize=auto;html=1;exitX=0.25;exitY=1;exitDx=0;exitDy=0;entryX=0.5;entryY=0;entryDx=0;entryDy=0;" edge="1" parent="WIyWlLk6GJQsqaUBKTNV-1" source="U5D13geEEuSproZ98-ho-29" target="vF0wNgT5Vav5AlTbMjVH-10">
          <mxGeometry relative="1" as="geometry" />
        </mxCell>
        <mxCell id="U5D13geEEuSproZ98-ho-29" value="Happy for Tsukune&lt;br&gt;&lt;br&gt;&lt;div&gt;(B)&lt;/div&gt;&lt;div&gt;$ lovePoints_Tsukune+=15&lt;/div&gt;" style="rounded=0;whiteSpace=wrap;html=1;fillColor=#ffe6cc;strokeColor=#d79b00;fontStyle=1" parent="WIyWlLk6GJQsqaUBKTNV-1" vertex="1">
          <mxGeometry x="200" y="880" width="170" height="60" as="geometry" />
        </mxCell>
        <mxCell id="U5D13geEEuSproZ98-ho-41" style="edgeStyle=orthogonalEdgeStyle;rounded=0;orthogonalLoop=1;jettySize=auto;html=1;exitX=1;exitY=0.5;exitDx=0;exitDy=0;entryX=0;entryY=0.5;entryDx=0;entryDy=0;" parent="WIyWlLk6GJQsqaUBKTNV-1" source="U5D13geEEuSproZ98-ho-34" target="U5D13geEEuSproZ98-ho-39" edge="1">
          <mxGeometry relative="1" as="geometry" />
        </mxCell>
        <mxCell id="U5D13geEEuSproZ98-ho-34" value="chapter_0_tsukuneDrive_claudiaTalk" style="rounded=1;whiteSpace=wrap;html=1;fontSize=15;glass=0;strokeWidth=2;shadow=0;fillColor=#ffe6cc;strokeColor=#d79b00;fontStyle=1" parent="WIyWlLk6GJQsqaUBKTNV-1" vertex="1">
          <mxGeometry x="1010" y="1554" width="280" height="40" as="geometry" />
        </mxCell>
        <mxCell id="U5D13geEEuSproZ98-ho-39" value="&amp;nbsp;&amp;nbsp;&lt;span style=&quot;background-color: transparent;&quot;&gt;$ persistent.journal_unlock = True&lt;/span&gt;&lt;div&gt;&amp;nbsp; $ persistent.claudia_hobby_barista = True&lt;/div&gt;&lt;div&gt;&amp;nbsp; $ persistent.journal_unlock = False&lt;/div&gt;" style="rounded=0;whiteSpace=wrap;html=1;dashed=1;fillColor=#f5f5f5;strokeColor=#666666;fontColor=#333333;align=left;fontSize=10;" parent="WIyWlLk6GJQsqaUBKTNV-1" vertex="1">
          <mxGeometry x="1309.25" y="1554" width="200" height="40" as="geometry" />
        </mxCell>
        <mxCell id="vF0wNgT5Vav5AlTbMjVH-0" style="edgeStyle=orthogonalEdgeStyle;rounded=0;orthogonalLoop=1;jettySize=auto;html=1;exitX=1;exitY=0.5;exitDx=0;exitDy=0;entryX=0.5;entryY=0;entryDx=0;entryDy=0;fillColor=#ffe6cc;strokeColor=#000000;" parent="WIyWlLk6GJQsqaUBKTNV-1" source="vF0wNgT5Vav5AlTbMjVH-2" target="vF0wNgT5Vav5AlTbMjVH-4" edge="1">
          <mxGeometry relative="1" as="geometry">
            <mxPoint x="1429.25" y="1684" as="targetPoint" />
            <Array as="points">
              <mxPoint x="1429.25" y="1644" />
            </Array>
          </mxGeometry>
        </mxCell>
        <mxCell id="vF0wNgT5Vav5AlTbMjVH-1" style="edgeStyle=orthogonalEdgeStyle;rounded=0;orthogonalLoop=1;jettySize=auto;html=1;exitX=0;exitY=0.5;exitDx=0;exitDy=0;entryX=0.5;entryY=0;entryDx=0;entryDy=0;fillColor=#ffe6cc;strokeColor=#000000;" parent="WIyWlLk6GJQsqaUBKTNV-1" source="vF0wNgT5Vav5AlTbMjVH-2" target="vF0wNgT5Vav5AlTbMjVH-3" edge="1">
          <mxGeometry relative="1" as="geometry">
            <mxPoint x="1149.25" y="1684" as="targetPoint" />
            <Array as="points">
              <mxPoint x="1149.25" y="1644" />
            </Array>
          </mxGeometry>
        </mxCell>
        <mxCell id="vF0wNgT5Vav5AlTbMjVH-2" value="&lt;font style=&quot;&quot;&gt;&lt;b&gt;Question:&lt;/b&gt;&lt;br&gt;&lt;b&gt;Interest In Claudia&lt;/b&gt;&lt;/font&gt;" style="shape=parallelogram;perimeter=parallelogramPerimeter;whiteSpace=wrap;html=1;fixedSize=1;fillColor=#ffe6cc;strokeColor=#d79b00;strokeWidth=2;fontSize=16;" parent="WIyWlLk6GJQsqaUBKTNV-1" vertex="1">
          <mxGeometry x="1170.5" y="1614" width="239" height="60" as="geometry" />
        </mxCell>
        <mxCell id="vF0wNgT5Vav5AlTbMjVH-3" value="Gauging Interest&lt;br&gt;&lt;div&gt;&lt;br&gt;(A)&lt;/div&gt;" style="rounded=0;whiteSpace=wrap;html=1;fillColor=#ffe6cc;strokeColor=#d79b00;fontStyle=1" parent="WIyWlLk6GJQsqaUBKTNV-1" vertex="1">
          <mxGeometry x="1089.25" y="1694" width="120" height="60" as="geometry" />
        </mxCell>
        <mxCell id="vF0wNgT5Vav5AlTbMjVH-4" value="Crash the Car&lt;br&gt;&lt;br&gt;&lt;div&gt;(C)&lt;/div&gt;" style="rounded=0;whiteSpace=wrap;html=1;fillColor=#ffe6cc;strokeColor=#d79b00;fontStyle=1" parent="WIyWlLk6GJQsqaUBKTNV-1" vertex="1">
          <mxGeometry x="1369.25" y="1694" width="120" height="60" as="geometry" />
        </mxCell>
        <mxCell id="vF0wNgT5Vav5AlTbMjVH-5" value="R U Gey&lt;br&gt;&lt;br&gt;&lt;div&gt;(B)&lt;/div&gt;" style="rounded=0;whiteSpace=wrap;html=1;fillColor=#ffe6cc;strokeColor=#d79b00;fontStyle=1" parent="WIyWlLk6GJQsqaUBKTNV-1" vertex="1">
          <mxGeometry x="1229.25" y="1694" width="120" height="60" as="geometry" />
        </mxCell>
        <mxCell id="vF0wNgT5Vav5AlTbMjVH-6" style="edgeStyle=orthogonalEdgeStyle;rounded=0;orthogonalLoop=1;jettySize=auto;html=1;exitX=0.5;exitY=1;exitDx=0;exitDy=0;entryX=0.508;entryY=-0.04;entryDx=0;entryDy=0;entryPerimeter=0;fontStyle=1;fillColor=#ffe6cc;strokeColor=#000000;" parent="WIyWlLk6GJQsqaUBKTNV-1" source="vF0wNgT5Vav5AlTbMjVH-2" target="vF0wNgT5Vav5AlTbMjVH-5" edge="1">
          <mxGeometry relative="1" as="geometry" />
        </mxCell>
        <mxCell id="vF0wNgT5Vav5AlTbMjVH-13" style="edgeStyle=orthogonalEdgeStyle;rounded=0;orthogonalLoop=1;jettySize=auto;html=1;exitX=0.5;exitY=1;exitDx=0;exitDy=0;entryX=0.5;entryY=0;entryDx=0;entryDy=0;" parent="WIyWlLk6GJQsqaUBKTNV-1" source="vF0wNgT5Vav5AlTbMjVH-10" target="vF0wNgT5Vav5AlTbMjVH-12" edge="1">
          <mxGeometry relative="1" as="geometry" />
        </mxCell>
        <mxCell id="vF0wNgT5Vav5AlTbMjVH-10" value="chapter_0_tsukuneDrive_end" style="rounded=1;whiteSpace=wrap;html=1;fontSize=15;glass=0;strokeWidth=2;shadow=0;fillColor=#ffe6cc;strokeColor=#d79b00;fontStyle=1" parent="WIyWlLk6GJQsqaUBKTNV-1" vertex="1">
          <mxGeometry x="140" y="960" width="240" height="40" as="geometry" />
        </mxCell>
        <mxCell id="vF0wNgT5Vav5AlTbMjVH-12" value="chapter_0_end" style="rounded=1;whiteSpace=wrap;html=1;fontSize=15;glass=0;strokeWidth=2;shadow=0;fillColor=#ffe6cc;strokeColor=#d79b00;fontStyle=1" parent="WIyWlLk6GJQsqaUBKTNV-1" vertex="1">
          <mxGeometry x="190" y="1020" width="140" height="40" as="geometry" />
        </mxCell>
        <mxCell id="ZdaJ2yf75kyhhVWWw3rS-0" style="edgeStyle=orthogonalEdgeStyle;rounded=0;orthogonalLoop=1;jettySize=auto;html=1;exitX=1;exitY=0.5;exitDx=0;exitDy=0;entryX=1;entryY=0.5;entryDx=0;entryDy=0;fillColor=#ffe6cc;strokeColor=#000000;" parent="WIyWlLk6GJQsqaUBKTNV-1" source="ZdaJ2yf75kyhhVWWw3rS-2" target="ZdaJ2yf75kyhhVWWw3rS-4" edge="1">
          <mxGeometry relative="1" as="geometry">
            <mxPoint x="540" y="1550" as="targetPoint" />
            <Array as="points">
              <mxPoint x="540" y="1510" />
              <mxPoint x="540" y="1580" />
            </Array>
          </mxGeometry>
        </mxCell>
        <mxCell id="ZdaJ2yf75kyhhVWWw3rS-1" style="edgeStyle=orthogonalEdgeStyle;rounded=0;orthogonalLoop=1;jettySize=auto;html=1;exitX=0;exitY=0.5;exitDx=0;exitDy=0;entryX=0;entryY=0.5;entryDx=0;entryDy=0;fillColor=#ffe6cc;strokeColor=#000000;" parent="WIyWlLk6GJQsqaUBKTNV-1" source="ZdaJ2yf75kyhhVWWw3rS-2" target="ZdaJ2yf75kyhhVWWw3rS-3" edge="1">
          <mxGeometry relative="1" as="geometry">
            <mxPoint x="260" y="1550" as="targetPoint" />
            <Array as="points">
              <mxPoint x="260" y="1510" />
              <mxPoint x="260" y="1580" />
            </Array>
          </mxGeometry>
        </mxCell>
        <mxCell id="ZdaJ2yf75kyhhVWWw3rS-2" value="&lt;font style=&quot;&quot;&gt;&lt;b&gt;Question:&lt;/b&gt;&lt;br&gt;&lt;/font&gt;&lt;div&gt;&lt;font style=&quot;&quot;&gt;&lt;b&gt;Presentation Topic&lt;/b&gt;&lt;/font&gt;&lt;/div&gt;" style="shape=parallelogram;perimeter=parallelogramPerimeter;whiteSpace=wrap;html=1;fixedSize=1;fillColor=#ffe6cc;strokeColor=#d79b00;strokeWidth=2;fontSize=16;" parent="WIyWlLk6GJQsqaUBKTNV-1" vertex="1">
          <mxGeometry x="281.25" y="1480" width="239" height="60" as="geometry" />
        </mxCell>
        <mxCell id="ZdaJ2yf75kyhhVWWw3rS-3" value="&lt;div&gt;Coffee&lt;/div&gt;&lt;div&gt;&lt;div&gt;&lt;font style=&quot;font-size: 8px;&quot;&gt;$ lovePoints_Claudia+=10&lt;/font&gt;&lt;/div&gt;&lt;div&gt;&lt;font style=&quot;font-size: 8px;&quot;&gt;$ lovePoints_Tsukune+=5&lt;/font&gt;&lt;/div&gt;(A)&lt;/div&gt;" style="rounded=0;whiteSpace=wrap;html=1;fillColor=#ffe6cc;strokeColor=#d79b00;fontStyle=1;align=center;" parent="WIyWlLk6GJQsqaUBKTNV-1" vertex="1">
          <mxGeometry x="270" y="1550" width="120" height="60" as="geometry" />
        </mxCell>
        <mxCell id="ZdaJ2yf75kyhhVWWw3rS-4" value="Pandas&lt;div&gt;&lt;span style=&quot;font-size: 8px;&quot;&gt;$ lovePoints_Claudia+=5&lt;/span&gt;&lt;br&gt;&lt;span style=&quot;font-size: 8px;&quot;&gt;$ lovePoints_Tsukune+=10&lt;/span&gt;&lt;br&gt;(B)&lt;/div&gt;" style="rounded=0;whiteSpace=wrap;html=1;fillColor=#ffe6cc;strokeColor=#d79b00;fontStyle=1" parent="WIyWlLk6GJQsqaUBKTNV-1" vertex="1">
          <mxGeometry x="414" y="1550" width="120" height="60" as="geometry" />
        </mxCell>
        <mxCell id="ZdaJ2yf75kyhhVWWw3rS-7" value="&lt;font style=&quot;font-size: 20px;&quot;&gt;Chapter 1&lt;/font&gt;" style="rounded=1;whiteSpace=wrap;html=1;fontSize=15;glass=0;strokeWidth=4;shadow=0;fillColor=#f8cecc;strokeColor=#b85450;fontStyle=1" parent="WIyWlLk6GJQsqaUBKTNV-1" vertex="1">
          <mxGeometry x="340" y="1420" width="119" height="40" as="geometry" />
        </mxCell>
        <mxCell id="whxMkYv3ltNgA1qONIYG-0" value="chapter_0_journal1" style="rounded=1;whiteSpace=wrap;html=1;fontSize=15;glass=0;strokeWidth=2;shadow=0;fillColor=#ffe6cc;strokeColor=#d79b00;fontStyle=1" vertex="1" parent="WIyWlLk6GJQsqaUBKTNV-1">
          <mxGeometry x="301.5" y="340" width="199.5" height="40" as="geometry" />
        </mxCell>
        <mxCell id="whxMkYv3ltNgA1qONIYG-4" style="edgeStyle=orthogonalEdgeStyle;rounded=0;orthogonalLoop=1;jettySize=auto;html=1;exitX=0.5;exitY=1;exitDx=0;exitDy=0;entryX=0.5;entryY=0;entryDx=0;entryDy=0;" edge="1" parent="WIyWlLk6GJQsqaUBKTNV-1" source="whxMkYv3ltNgA1qONIYG-1" target="whxMkYv3ltNgA1qONIYG-3">
          <mxGeometry relative="1" as="geometry" />
        </mxCell>
        <mxCell id="whxMkYv3ltNgA1qONIYG-1" value="chapter_0_meetClaudia" style="rounded=1;whiteSpace=wrap;html=1;fontSize=15;glass=0;strokeWidth=2;shadow=0;fillColor=#ffe6cc;strokeColor=#d79b00;fontStyle=1" vertex="1" parent="WIyWlLk6GJQsqaUBKTNV-1">
          <mxGeometry x="301.5" y="400" width="199.5" height="40" as="geometry" />
        </mxCell>
        <mxCell id="whxMkYv3ltNgA1qONIYG-2" style="edgeStyle=orthogonalEdgeStyle;rounded=0;orthogonalLoop=1;jettySize=auto;html=1;exitX=0.5;exitY=1;exitDx=0;exitDy=0;entryX=0.5;entryY=0;entryDx=0;entryDy=0;" edge="1" parent="WIyWlLk6GJQsqaUBKTNV-1" source="whxMkYv3ltNgA1qONIYG-0" target="whxMkYv3ltNgA1qONIYG-1">
          <mxGeometry relative="1" as="geometry" />
        </mxCell>
        <mxCell id="whxMkYv3ltNgA1qONIYG-5" style="edgeStyle=orthogonalEdgeStyle;rounded=0;orthogonalLoop=1;jettySize=auto;html=1;exitX=0.5;exitY=1;exitDx=0;exitDy=0;entryX=0.5;entryY=0;entryDx=0;entryDy=0;" edge="1" parent="WIyWlLk6GJQsqaUBKTNV-1" source="whxMkYv3ltNgA1qONIYG-3" target="U5D13geEEuSproZ98-ho-16">
          <mxGeometry relative="1" as="geometry" />
        </mxCell>
        <mxCell id="whxMkYv3ltNgA1qONIYG-3" value="chapter_0_journal2" style="rounded=1;whiteSpace=wrap;html=1;fontSize=15;glass=0;strokeWidth=2;shadow=0;fillColor=#ffe6cc;strokeColor=#d79b00;fontStyle=1" vertex="1" parent="WIyWlLk6GJQsqaUBKTNV-1">
          <mxGeometry x="301.5" y="460" width="199.5" height="40" as="geometry" />
        </mxCell>
        <mxCell id="whxMkYv3ltNgA1qONIYG-17" style="edgeStyle=orthogonalEdgeStyle;rounded=0;orthogonalLoop=1;jettySize=auto;html=1;exitX=0;exitY=1;exitDx=0;exitDy=0;entryX=0.5;entryY=0;entryDx=0;entryDy=0;" edge="1" parent="WIyWlLk6GJQsqaUBKTNV-1" source="whxMkYv3ltNgA1qONIYG-6" target="whxMkYv3ltNgA1qONIYG-11">
          <mxGeometry relative="1" as="geometry" />
        </mxCell>
        <mxCell id="whxMkYv3ltNgA1qONIYG-19" style="edgeStyle=orthogonalEdgeStyle;rounded=0;orthogonalLoop=1;jettySize=auto;html=1;exitX=1;exitY=1;exitDx=0;exitDy=0;entryX=0.5;entryY=0;entryDx=0;entryDy=0;" edge="1" parent="WIyWlLk6GJQsqaUBKTNV-1" source="whxMkYv3ltNgA1qONIYG-6" target="whxMkYv3ltNgA1qONIYG-12">
          <mxGeometry relative="1" as="geometry" />
        </mxCell>
        <mxCell id="whxMkYv3ltNgA1qONIYG-6" value="&lt;b&gt;&lt;font&gt;Question:&lt;br&gt;What to talk about&lt;/font&gt;&lt;/b&gt;" style="shape=parallelogram;perimeter=parallelogramPerimeter;whiteSpace=wrap;html=1;fixedSize=1;fillColor=#ffe6cc;strokeColor=#d79b00;strokeWidth=2;fontSize=16;" vertex="1" parent="WIyWlLk6GJQsqaUBKTNV-1">
          <mxGeometry x="282.25" y="640" width="239" height="60" as="geometry" />
        </mxCell>
        <mxCell id="whxMkYv3ltNgA1qONIYG-14" style="edgeStyle=orthogonalEdgeStyle;rounded=0;orthogonalLoop=1;jettySize=auto;html=1;exitX=0.5;exitY=1;exitDx=0;exitDy=0;entryX=0.5;entryY=0;entryDx=0;entryDy=0;" edge="1" parent="WIyWlLk6GJQsqaUBKTNV-1" source="whxMkYv3ltNgA1qONIYG-11" target="U5D13geEEuSproZ98-ho-21">
          <mxGeometry relative="1" as="geometry" />
        </mxCell>
        <mxCell id="whxMkYv3ltNgA1qONIYG-11" value="Check in w/ Tsukune&lt;div&gt;&lt;span style=&quot;background-color: transparent; color: light-dark(rgb(0, 0, 0), rgb(255, 255, 255));&quot;&gt;&lt;br&gt;&lt;/span&gt;&lt;/div&gt;&lt;div&gt;&lt;span style=&quot;background-color: transparent; color: light-dark(rgb(0, 0, 0), rgb(255, 255, 255));&quot;&gt;$ lovePoints_Tsukune+=20&lt;/span&gt;&lt;/div&gt;" style="rounded=0;whiteSpace=wrap;html=1;fillColor=#ffe6cc;strokeColor=#d79b00;fontStyle=1" vertex="1" parent="WIyWlLk6GJQsqaUBKTNV-1">
          <mxGeometry x="180" y="720" width="160" height="60" as="geometry" />
        </mxCell>
        <mxCell id="whxMkYv3ltNgA1qONIYG-12" value="Talk about neighbor&lt;div&gt;&lt;br&gt;&lt;div&gt;$ lovePoints_Claudia+=20&lt;/div&gt;&lt;/div&gt;" style="rounded=0;whiteSpace=wrap;html=1;fillColor=#ffe6cc;strokeColor=#d79b00;fontStyle=1" vertex="1" parent="WIyWlLk6GJQsqaUBKTNV-1">
          <mxGeometry x="450" y="720" width="160" height="60" as="geometry" />
        </mxCell>
      </root>
    </mxGraphModel>
  </diagram>
  <diagram id="fBYd23w8B7kavNvezD_V" name="Character Interests">
    <mxGraphModel dx="-258" dy="840" grid="1" gridSize="10" guides="1" tooltips="1" connect="1" arrows="1" fold="1" page="1" pageScale="1" pageWidth="850" pageHeight="1100" math="0" shadow="0">
      <root>
        <mxCell id="0" />
        <mxCell id="1" parent="0" />
        <mxCell id="al91VbrNXtHD3-wN2hNc-1" value="Character&lt;br&gt;Interests" style="rhombus;whiteSpace=wrap;html=1;fillColor=#dae8fc;strokeColor=#6c8ebf;perimeterSpacing=10;shadow=0;rounded=1;strokeWidth=3;fontStyle=1" parent="1" vertex="1">
          <mxGeometry x="1069.5" y="20" width="121" height="120" as="geometry" />
        </mxCell>
        <mxCell id="al91VbrNXtHD3-wN2hNc-2" value="Alex" style="rounded=1;whiteSpace=wrap;html=1;fontSize=15;glass=0;strokeWidth=2;shadow=0;fillColor=#f8cecc;strokeColor=#b85450;fontStyle=1" parent="1" vertex="1">
          <mxGeometry x="870" y="160" width="160" height="40" as="geometry" />
        </mxCell>
        <mxCell id="al91VbrNXtHD3-wN2hNc-3" value="Claudia" style="rounded=1;whiteSpace=wrap;html=1;fontSize=15;glass=0;strokeWidth=2;shadow=0;fillColor=#f8cecc;strokeColor=#b85450;fontStyle=1" parent="1" vertex="1">
          <mxGeometry x="1050" y="160" width="160" height="40" as="geometry" />
        </mxCell>
        <mxCell id="al91VbrNXtHD3-wN2hNc-4" value="Tsukune" style="rounded=1;whiteSpace=wrap;html=1;fontSize=15;glass=0;strokeWidth=2;shadow=0;fillColor=#f8cecc;strokeColor=#b85450;fontStyle=1" parent="1" vertex="1">
          <mxGeometry x="1230" y="160" width="160" height="40" as="geometry" />
        </mxCell>
        <mxCell id="al91VbrNXtHD3-wN2hNc-5" value="Photography" style="rounded=1;whiteSpace=wrap;html=1;fontSize=12;glass=0;strokeWidth=1;shadow=0;fillColor=#f8cecc;strokeColor=#b85450;" parent="1" vertex="1">
          <mxGeometry x="880" y="220" width="140" height="40" as="geometry" />
        </mxCell>
        <mxCell id="al91VbrNXtHD3-wN2hNc-6" value="Athletic (jogging)" style="rounded=1;whiteSpace=wrap;html=1;fontSize=12;glass=0;strokeWidth=1;shadow=0;fillColor=#f8cecc;strokeColor=#b85450;" parent="1" vertex="1">
          <mxGeometry x="1060" y="220" width="140" height="40" as="geometry" />
        </mxCell>
        <mxCell id="al91VbrNXtHD3-wN2hNc-7" value="Concerts" style="rounded=1;whiteSpace=wrap;html=1;fontSize=12;glass=0;strokeWidth=1;shadow=0;fillColor=#f8cecc;strokeColor=#b85450;" parent="1" vertex="1">
          <mxGeometry x="1240" y="220" width="140" height="40" as="geometry" />
        </mxCell>
        <mxCell id="al91VbrNXtHD3-wN2hNc-8" value="Hard time identifying emotions" style="rounded=1;whiteSpace=wrap;html=1;fontSize=12;glass=0;strokeWidth=1;shadow=0;fillColor=#f8cecc;strokeColor=#b85450;" parent="1" vertex="1">
          <mxGeometry x="880" y="280" width="140" height="40" as="geometry" />
        </mxCell>
        <mxCell id="al91VbrNXtHD3-wN2hNc-9" value="Depression" style="rounded=1;whiteSpace=wrap;html=1;fontSize=12;glass=0;strokeWidth=1;shadow=0;fillColor=#f8cecc;strokeColor=#b85450;" parent="1" vertex="1">
          <mxGeometry x="880" y="340" width="140" height="40" as="geometry" />
        </mxCell>
        <mxCell id="al91VbrNXtHD3-wN2hNc-10" value="Barista" style="rounded=1;whiteSpace=wrap;html=1;fontSize=12;glass=0;strokeWidth=1;shadow=0;fillColor=#f8cecc;strokeColor=#b85450;" parent="1" vertex="1">
          <mxGeometry x="1060" y="280" width="140" height="40" as="geometry" />
        </mxCell>
        <mxCell id="al91VbrNXtHD3-wN2hNc-11" value="Has barista blog" style="rounded=1;whiteSpace=wrap;html=1;fontSize=12;glass=0;strokeWidth=1;shadow=0;fillColor=#f8cecc;strokeColor=#b85450;" parent="1" vertex="1">
          <mxGeometry x="1060" y="340" width="140" height="40" as="geometry" />
        </mxCell>
        <mxCell id="al91VbrNXtHD3-wN2hNc-12" value="Experiments with arts:&lt;br&gt;Pottery date&lt;span style=&quot;background-color: transparent; color: light-dark(rgb(0, 0, 0), rgb(255, 255, 255));&quot;&gt;&amp;nbsp;(?)&lt;/span&gt;&lt;div&gt;Art date (?)&lt;/div&gt;" style="rounded=1;whiteSpace=wrap;html=1;fontSize=12;glass=0;strokeWidth=1;shadow=0;fillColor=#f8cecc;strokeColor=#b85450;" parent="1" vertex="1">
          <mxGeometry x="1060" y="400" width="140" height="60" as="geometry" />
        </mxCell>
        <mxCell id="al91VbrNXtHD3-wN2hNc-13" value="Comic Books&lt;br&gt;&quot;The&amp;nbsp;&lt;span style=&quot;background-color: transparent; color: light-dark(rgb(0, 0, 0), rgb(255, 255, 255));&quot;&gt;Iron Turtle&quot;&lt;/span&gt;" style="rounded=1;whiteSpace=wrap;html=1;fontSize=12;glass=0;strokeWidth=1;shadow=0;fillColor=#f8cecc;strokeColor=#b85450;" parent="1" vertex="1">
          <mxGeometry x="1240" y="280" width="140" height="40" as="geometry" />
        </mxCell>
        <mxCell id="al91VbrNXtHD3-wN2hNc-14" value="Working on building confidence" style="rounded=1;whiteSpace=wrap;html=1;fontSize=12;glass=0;strokeWidth=1;shadow=0;fillColor=#f8cecc;strokeColor=#b85450;" parent="1" vertex="1">
          <mxGeometry x="1240" y="340" width="140" height="40" as="geometry" />
        </mxCell>
        <mxCell id="al91VbrNXtHD3-wN2hNc-15" value="Goes to therapy" style="rounded=1;whiteSpace=wrap;html=1;fontSize=12;glass=0;strokeWidth=1;shadow=0;fillColor=#f8cecc;strokeColor=#b85450;" parent="1" vertex="1">
          <mxGeometry x="1240" y="400" width="140" height="40" as="geometry" />
        </mxCell>
        <mxCell id="MRndL6cZj0DRfVmx6We--1" value="Hygiene OCD" style="rounded=1;whiteSpace=wrap;html=1;fontSize=12;glass=0;strokeWidth=1;shadow=0;fillColor=#f8cecc;strokeColor=#b85450;" vertex="1" parent="1">
          <mxGeometry x="1060" y="480" width="140" height="40" as="geometry" />
        </mxCell>
        <mxCell id="MRndL6cZj0DRfVmx6We--2" value="C-&lt;span style=&quot;background-color: transparent; color: light-dark(rgb(0, 0, 0), rgb(255, 255, 255));&quot;&gt;PTSD&lt;/span&gt;" style="rounded=1;whiteSpace=wrap;html=1;fontSize=12;glass=0;strokeWidth=1;shadow=0;fillColor=#f8cecc;strokeColor=#b85450;" vertex="1" parent="1">
          <mxGeometry x="1060" y="540" width="140" height="40" as="geometry" />
        </mxCell>
        <mxCell id="MRndL6cZj0DRfVmx6We--3" value="Cigarette addiction recovery" style="rounded=1;whiteSpace=wrap;html=1;fontSize=12;glass=0;strokeWidth=1;shadow=0;fillColor=#f8cecc;strokeColor=#b85450;" vertex="1" parent="1">
          <mxGeometry x="1240" y="460" width="140" height="40" as="geometry" />
        </mxCell>
        <mxCell id="MRndL6cZj0DRfVmx6We--4" value="Baseball fan&lt;br&gt;(Ogres)" style="rounded=1;whiteSpace=wrap;html=1;fontSize=12;glass=0;strokeWidth=1;shadow=0;fillColor=#f8cecc;strokeColor=#b85450;" vertex="1" parent="1">
          <mxGeometry x="1240" y="520" width="140" height="40" as="geometry" />
        </mxCell>
        <mxCell id="MRndL6cZj0DRfVmx6We--5" value="Data Entry Analyst" style="rounded=1;whiteSpace=wrap;html=1;fontSize=12;glass=0;strokeWidth=1;shadow=0;fillColor=#f8cecc;strokeColor=#b85450;" vertex="1" parent="1">
          <mxGeometry x="880" y="400" width="140" height="40" as="geometry" />
        </mxCell>
        <mxCell id="MRndL6cZj0DRfVmx6We--6" value="Data Entry for&lt;br&gt;Legal Department" style="rounded=1;whiteSpace=wrap;html=1;fontSize=12;glass=0;strokeWidth=1;shadow=0;fillColor=#f8cecc;strokeColor=#b85450;" vertex="1" parent="1">
          <mxGeometry x="1240" y="580" width="140" height="40" as="geometry" />
        </mxCell>
      </root>
    </mxGraphModel>
  </diagram>
  <diagram id="lu6DFgVoZAJ9OZ8kyoLa" name="Game Dev Path">
    <mxGraphModel dx="874" dy="708" grid="1" gridSize="10" guides="1" tooltips="1" connect="1" arrows="1" fold="1" page="1" pageScale="1" pageWidth="850" pageHeight="1100" math="0" shadow="0">
      <root>
        <mxCell id="0" />
        <mxCell id="1" parent="0" />
        <mxCell id="t37LZE1mV-UA1u1x_BtD-1" value="Game&lt;br&gt;Features" style="rhombus;whiteSpace=wrap;html=1;fillColor=#dae8fc;strokeColor=#6c8ebf;" parent="1" vertex="1">
          <mxGeometry x="330" y="20" width="120" height="120" as="geometry" />
        </mxCell>
        <mxCell id="t37LZE1mV-UA1u1x_BtD-2" style="edgeStyle=orthogonalEdgeStyle;rounded=0;orthogonalLoop=1;jettySize=auto;html=1;exitX=0.5;exitY=1;exitDx=0;exitDy=0;entryX=0.5;entryY=0;entryDx=0;entryDy=0;" parent="1" source="t37LZE1mV-UA1u1x_BtD-3" target="t37LZE1mV-UA1u1x_BtD-9" edge="1">
          <mxGeometry relative="1" as="geometry" />
        </mxCell>
        <mxCell id="t37LZE1mV-UA1u1x_BtD-3" value="About (imagebuttons for categories)" style="rounded=1;whiteSpace=wrap;html=1;fontSize=12;glass=0;strokeWidth=1;shadow=0;fillColor=#f8cecc;strokeColor=#b85450;" parent="1" vertex="1">
          <mxGeometry x="330" y="280" width="120" height="40" as="geometry" />
        </mxCell>
        <mxCell id="t37LZE1mV-UA1u1x_BtD-4" style="edgeStyle=orthogonalEdgeStyle;rounded=0;orthogonalLoop=1;jettySize=auto;html=1;exitX=0.5;exitY=1;exitDx=0;exitDy=0;entryX=0.5;entryY=0;entryDx=0;entryDy=0;" parent="1" source="t37LZE1mV-UA1u1x_BtD-5" target="t37LZE1mV-UA1u1x_BtD-3" edge="1">
          <mxGeometry relative="1" as="geometry" />
        </mxCell>
        <mxCell id="t37LZE1mV-UA1u1x_BtD-5" value="Fix In-Game Navigation" style="rounded=1;whiteSpace=wrap;html=1;fontSize=12;glass=0;strokeWidth=1;shadow=0;fillColor=#d5e8d4;strokeColor=#82b366;" parent="1" vertex="1">
          <mxGeometry x="330" y="220" width="120" height="40" as="geometry" />
        </mxCell>
        <mxCell id="t37LZE1mV-UA1u1x_BtD-6" style="edgeStyle=orthogonalEdgeStyle;rounded=0;orthogonalLoop=1;jettySize=auto;html=1;exitX=0.5;exitY=1;exitDx=0;exitDy=0;entryX=0.5;entryY=0;entryDx=0;entryDy=0;" parent="1" source="t37LZE1mV-UA1u1x_BtD-7" target="t37LZE1mV-UA1u1x_BtD-5" edge="1">
          <mxGeometry relative="1" as="geometry" />
        </mxCell>
        <mxCell id="t37LZE1mV-UA1u1x_BtD-7" value="Relationship Bar" style="rounded=1;whiteSpace=wrap;html=1;fontSize=12;glass=0;strokeWidth=1;shadow=0;fillColor=#fff2cc;strokeColor=#d6b656;" parent="1" vertex="1">
          <mxGeometry x="330" y="160" width="120" height="40" as="geometry" />
        </mxCell>
        <mxCell id="t37LZE1mV-UA1u1x_BtD-8" style="edgeStyle=orthogonalEdgeStyle;rounded=0;orthogonalLoop=1;jettySize=auto;html=1;exitX=0.5;exitY=1;exitDx=0;exitDy=0;entryX=0.5;entryY=0;entryDx=0;entryDy=0;" parent="1" source="t37LZE1mV-UA1u1x_BtD-9" target="t37LZE1mV-UA1u1x_BtD-11" edge="1">
          <mxGeometry relative="1" as="geometry" />
        </mxCell>
        <mxCell id="t37LZE1mV-UA1u1x_BtD-9" value="" style="rounded=1;whiteSpace=wrap;html=1;fontSize=12;glass=0;strokeWidth=1;shadow=0;fillColor=#f8cecc;strokeColor=#b85450;" parent="1" vertex="1">
          <mxGeometry x="330" y="340" width="120" height="40" as="geometry" />
        </mxCell>
        <mxCell id="t37LZE1mV-UA1u1x_BtD-10" style="edgeStyle=orthogonalEdgeStyle;rounded=0;orthogonalLoop=1;jettySize=auto;html=1;exitX=0.5;exitY=1;exitDx=0;exitDy=0;entryX=0.5;entryY=0;entryDx=0;entryDy=0;" parent="1" source="t37LZE1mV-UA1u1x_BtD-11" target="t37LZE1mV-UA1u1x_BtD-13" edge="1">
          <mxGeometry relative="1" as="geometry" />
        </mxCell>
        <mxCell id="t37LZE1mV-UA1u1x_BtD-11" value="" style="rounded=1;whiteSpace=wrap;html=1;fontSize=12;glass=0;strokeWidth=1;shadow=0;fillColor=#f8cecc;strokeColor=#b85450;" parent="1" vertex="1">
          <mxGeometry x="330" y="400" width="120" height="40" as="geometry" />
        </mxCell>
        <mxCell id="t37LZE1mV-UA1u1x_BtD-12" style="edgeStyle=orthogonalEdgeStyle;rounded=0;orthogonalLoop=1;jettySize=auto;html=1;exitX=0.5;exitY=1;exitDx=0;exitDy=0;entryX=0.5;entryY=0;entryDx=0;entryDy=0;" parent="1" source="t37LZE1mV-UA1u1x_BtD-13" target="t37LZE1mV-UA1u1x_BtD-15" edge="1">
          <mxGeometry relative="1" as="geometry" />
        </mxCell>
        <mxCell id="t37LZE1mV-UA1u1x_BtD-13" value="" style="rounded=1;whiteSpace=wrap;html=1;fontSize=12;glass=0;strokeWidth=1;shadow=0;fillColor=#f8cecc;strokeColor=#b85450;" parent="1" vertex="1">
          <mxGeometry x="330" y="460" width="120" height="40" as="geometry" />
        </mxCell>
        <mxCell id="t37LZE1mV-UA1u1x_BtD-14" style="edgeStyle=orthogonalEdgeStyle;rounded=0;orthogonalLoop=1;jettySize=auto;html=1;exitX=0.5;exitY=1;exitDx=0;exitDy=0;entryX=0.5;entryY=0;entryDx=0;entryDy=0;" parent="1" source="t37LZE1mV-UA1u1x_BtD-15" target="t37LZE1mV-UA1u1x_BtD-16" edge="1">
          <mxGeometry relative="1" as="geometry" />
        </mxCell>
        <mxCell id="t37LZE1mV-UA1u1x_BtD-15" value="" style="rounded=1;whiteSpace=wrap;html=1;fontSize=12;glass=0;strokeWidth=1;shadow=0;fillColor=#f8cecc;strokeColor=#b85450;" parent="1" vertex="1">
          <mxGeometry x="330" y="520" width="120" height="40" as="geometry" />
        </mxCell>
        <mxCell id="t37LZE1mV-UA1u1x_BtD-16" value="" style="rounded=1;whiteSpace=wrap;html=1;fontSize=12;glass=0;strokeWidth=1;shadow=0;fillColor=#f8cecc;strokeColor=#b85450;" parent="1" vertex="1">
          <mxGeometry x="330" y="580" width="120" height="40" as="geometry" />
        </mxCell>
        <mxCell id="t37LZE1mV-UA1u1x_BtD-42" value="Useful Code" style="rhombus;whiteSpace=wrap;html=1;fillColor=#dae8fc;strokeColor=#6c8ebf;" parent="1" vertex="1">
          <mxGeometry x="220" y="1190" width="120" height="120" as="geometry" />
        </mxCell>
        <mxCell id="t37LZE1mV-UA1u1x_BtD-43" style="edgeStyle=orthogonalEdgeStyle;rounded=0;orthogonalLoop=1;jettySize=auto;html=1;exitX=1;exitY=0.5;exitDx=0;exitDy=0;" parent="1" source="t37LZE1mV-UA1u1x_BtD-44" target="t37LZE1mV-UA1u1x_BtD-59" edge="1">
          <mxGeometry relative="1" as="geometry" />
        </mxCell>
        <mxCell id="t37LZE1mV-UA1u1x_BtD-44" value="" style="rounded=1;whiteSpace=wrap;html=1;fontSize=12;glass=0;strokeWidth=1;shadow=0;fillColor=#fff2cc;strokeColor=#d6b656;" parent="1" vertex="1">
          <mxGeometry x="20" y="1450" width="160" height="40" as="geometry" />
        </mxCell>
        <mxCell id="t37LZE1mV-UA1u1x_BtD-45" style="edgeStyle=orthogonalEdgeStyle;rounded=0;orthogonalLoop=1;jettySize=auto;html=1;exitX=1;exitY=0.5;exitDx=0;exitDy=0;entryX=0;entryY=0.5;entryDx=0;entryDy=0;" parent="1" source="t37LZE1mV-UA1u1x_BtD-46" target="t37LZE1mV-UA1u1x_BtD-60" edge="1">
          <mxGeometry relative="1" as="geometry" />
        </mxCell>
        <mxCell id="t37LZE1mV-UA1u1x_BtD-46" value="" style="rounded=1;whiteSpace=wrap;html=1;fontSize=11;glass=0;strokeWidth=1;shadow=0;fillColor=#fff2cc;strokeColor=#d6b656;" parent="1" vertex="1">
          <mxGeometry x="20" y="1390" width="160" height="40" as="geometry" />
        </mxCell>
        <mxCell id="t37LZE1mV-UA1u1x_BtD-47" style="edgeStyle=orthogonalEdgeStyle;rounded=0;orthogonalLoop=1;jettySize=auto;html=1;exitX=1;exitY=0.5;exitDx=0;exitDy=0;entryX=0;entryY=0.5;entryDx=0;entryDy=0;" parent="1" source="t37LZE1mV-UA1u1x_BtD-48" target="t37LZE1mV-UA1u1x_BtD-61" edge="1">
          <mxGeometry relative="1" as="geometry" />
        </mxCell>
        <mxCell id="t37LZE1mV-UA1u1x_BtD-48" value="&lt;font style=&quot;font-size: 9px;&quot;&gt;text_style &quot;navigationTitleTextButton&quot;&lt;/font&gt;" style="rounded=1;whiteSpace=wrap;html=1;fontSize=11;glass=0;strokeWidth=1;shadow=0;fillColor=#fff2cc;strokeColor=#d6b656;" parent="1" vertex="1">
          <mxGeometry x="20" y="1330" width="160" height="40" as="geometry" />
        </mxCell>
        <mxCell id="t37LZE1mV-UA1u1x_BtD-49" style="edgeStyle=orthogonalEdgeStyle;rounded=0;orthogonalLoop=1;jettySize=auto;html=1;exitX=1;exitY=0.5;exitDx=0;exitDy=0;entryX=0;entryY=0.5;entryDx=0;entryDy=0;" parent="1" source="t37LZE1mV-UA1u1x_BtD-50" target="t37LZE1mV-UA1u1x_BtD-62" edge="1">
          <mxGeometry relative="1" as="geometry" />
        </mxCell>
        <mxCell id="t37LZE1mV-UA1u1x_BtD-50" value="" style="rounded=1;whiteSpace=wrap;html=1;fontSize=12;glass=0;strokeWidth=1;shadow=0;fillColor=#fff2cc;strokeColor=#d6b656;" parent="1" vertex="1">
          <mxGeometry x="20" y="1510" width="160" height="40" as="geometry" />
        </mxCell>
        <mxCell id="t37LZE1mV-UA1u1x_BtD-51" style="edgeStyle=orthogonalEdgeStyle;rounded=0;orthogonalLoop=1;jettySize=auto;html=1;exitX=1;exitY=0.5;exitDx=0;exitDy=0;entryX=0;entryY=0.5;entryDx=0;entryDy=0;" parent="1" source="t37LZE1mV-UA1u1x_BtD-52" target="t37LZE1mV-UA1u1x_BtD-63" edge="1">
          <mxGeometry relative="1" as="geometry" />
        </mxCell>
        <mxCell id="t37LZE1mV-UA1u1x_BtD-52" value="" style="rounded=1;whiteSpace=wrap;html=1;fontSize=12;glass=0;strokeWidth=1;shadow=0;fillColor=#fff2cc;strokeColor=#d6b656;" parent="1" vertex="1">
          <mxGeometry x="20" y="1570" width="160" height="40" as="geometry" />
        </mxCell>
        <mxCell id="t37LZE1mV-UA1u1x_BtD-53" style="edgeStyle=orthogonalEdgeStyle;rounded=0;orthogonalLoop=1;jettySize=auto;html=1;exitX=1;exitY=0.5;exitDx=0;exitDy=0;entryX=0;entryY=0.5;entryDx=0;entryDy=0;" parent="1" source="t37LZE1mV-UA1u1x_BtD-54" target="t37LZE1mV-UA1u1x_BtD-65" edge="1">
          <mxGeometry relative="1" as="geometry" />
        </mxCell>
        <mxCell id="t37LZE1mV-UA1u1x_BtD-54" value="" style="rounded=1;whiteSpace=wrap;html=1;fontSize=12;glass=0;strokeWidth=1;shadow=0;fillColor=#fff2cc;strokeColor=#d6b656;" parent="1" vertex="1">
          <mxGeometry x="20" y="1630" width="160" height="40" as="geometry" />
        </mxCell>
        <mxCell id="t37LZE1mV-UA1u1x_BtD-55" style="edgeStyle=orthogonalEdgeStyle;rounded=0;orthogonalLoop=1;jettySize=auto;html=1;exitX=1;exitY=0.5;exitDx=0;exitDy=0;entryX=0;entryY=0.5;entryDx=0;entryDy=0;" parent="1" source="t37LZE1mV-UA1u1x_BtD-56" target="t37LZE1mV-UA1u1x_BtD-67" edge="1">
          <mxGeometry relative="1" as="geometry" />
        </mxCell>
        <mxCell id="t37LZE1mV-UA1u1x_BtD-56" value="" style="rounded=1;whiteSpace=wrap;html=1;fontSize=12;glass=0;strokeWidth=1;shadow=0;fillColor=#fff2cc;strokeColor=#d6b656;" parent="1" vertex="1">
          <mxGeometry x="20" y="1690" width="160" height="40" as="geometry" />
        </mxCell>
        <mxCell id="t37LZE1mV-UA1u1x_BtD-57" style="edgeStyle=orthogonalEdgeStyle;rounded=0;orthogonalLoop=1;jettySize=auto;html=1;exitX=1;exitY=0.5;exitDx=0;exitDy=0;entryX=0;entryY=0.5;entryDx=0;entryDy=0;" parent="1" source="t37LZE1mV-UA1u1x_BtD-58" target="t37LZE1mV-UA1u1x_BtD-69" edge="1">
          <mxGeometry relative="1" as="geometry" />
        </mxCell>
        <mxCell id="t37LZE1mV-UA1u1x_BtD-58" value="" style="rounded=1;whiteSpace=wrap;html=1;fontSize=12;glass=0;strokeWidth=1;shadow=0;fillColor=#fff2cc;strokeColor=#d6b656;" parent="1" vertex="1">
          <mxGeometry x="20" y="1750" width="160" height="40" as="geometry" />
        </mxCell>
        <mxCell id="t37LZE1mV-UA1u1x_BtD-59" value="" style="rounded=1;whiteSpace=wrap;html=1;fontSize=12;glass=0;strokeWidth=1;shadow=0;fillColor=#fff2cc;strokeColor=#d6b656;" parent="1" vertex="1">
          <mxGeometry x="200" y="1450" width="160" height="40" as="geometry" />
        </mxCell>
        <mxCell id="t37LZE1mV-UA1u1x_BtD-60" value="" style="rounded=1;whiteSpace=wrap;html=1;fontSize=11;glass=0;strokeWidth=1;shadow=0;fillColor=#fff2cc;strokeColor=#d6b656;" parent="1" vertex="1">
          <mxGeometry x="200" y="1390" width="160" height="40" as="geometry" />
        </mxCell>
        <mxCell id="t37LZE1mV-UA1u1x_BtD-61" value="Use to add style to textbutton" style="rounded=1;whiteSpace=wrap;html=1;fontSize=11;glass=0;strokeWidth=1;shadow=0;fillColor=#fff2cc;strokeColor=#d6b656;" parent="1" vertex="1">
          <mxGeometry x="200" y="1330" width="160" height="40" as="geometry" />
        </mxCell>
        <mxCell id="t37LZE1mV-UA1u1x_BtD-62" value="" style="rounded=1;whiteSpace=wrap;html=1;fontSize=12;glass=0;strokeWidth=1;shadow=0;fillColor=#fff2cc;strokeColor=#d6b656;" parent="1" vertex="1">
          <mxGeometry x="200" y="1510" width="160" height="40" as="geometry" />
        </mxCell>
        <mxCell id="t37LZE1mV-UA1u1x_BtD-63" value="" style="rounded=1;whiteSpace=wrap;html=1;fontSize=12;glass=0;strokeWidth=1;shadow=0;fillColor=#fff2cc;strokeColor=#d6b656;" parent="1" vertex="1">
          <mxGeometry x="200" y="1570" width="160" height="40" as="geometry" />
        </mxCell>
        <mxCell id="t37LZE1mV-UA1u1x_BtD-64" value="" style="edgeStyle=orthogonalEdgeStyle;rounded=0;orthogonalLoop=1;jettySize=auto;html=1;" parent="1" source="t37LZE1mV-UA1u1x_BtD-65" target="t37LZE1mV-UA1u1x_BtD-83" edge="1">
          <mxGeometry relative="1" as="geometry" />
        </mxCell>
        <mxCell id="t37LZE1mV-UA1u1x_BtD-65" value="" style="rounded=1;whiteSpace=wrap;html=1;fontSize=12;glass=0;strokeWidth=1;shadow=0;fillColor=#fff2cc;strokeColor=#d6b656;" parent="1" vertex="1">
          <mxGeometry x="200" y="1630" width="160" height="40" as="geometry" />
        </mxCell>
        <mxCell id="t37LZE1mV-UA1u1x_BtD-66" value="" style="edgeStyle=orthogonalEdgeStyle;rounded=0;orthogonalLoop=1;jettySize=auto;html=1;" parent="1" source="t37LZE1mV-UA1u1x_BtD-67" target="t37LZE1mV-UA1u1x_BtD-84" edge="1">
          <mxGeometry relative="1" as="geometry" />
        </mxCell>
        <mxCell id="t37LZE1mV-UA1u1x_BtD-67" value="" style="rounded=1;whiteSpace=wrap;html=1;fontSize=12;glass=0;strokeWidth=1;shadow=0;fillColor=#fff2cc;strokeColor=#d6b656;" parent="1" vertex="1">
          <mxGeometry x="200" y="1690" width="160" height="40" as="geometry" />
        </mxCell>
        <mxCell id="t37LZE1mV-UA1u1x_BtD-68" value="" style="edgeStyle=orthogonalEdgeStyle;rounded=0;orthogonalLoop=1;jettySize=auto;html=1;" parent="1" source="t37LZE1mV-UA1u1x_BtD-69" target="t37LZE1mV-UA1u1x_BtD-85" edge="1">
          <mxGeometry relative="1" as="geometry" />
        </mxCell>
        <mxCell id="t37LZE1mV-UA1u1x_BtD-69" value="" style="rounded=1;whiteSpace=wrap;html=1;fontSize=12;glass=0;strokeWidth=1;shadow=0;fillColor=#fff2cc;strokeColor=#d6b656;" parent="1" vertex="1">
          <mxGeometry x="200" y="1750" width="160" height="40" as="geometry" />
        </mxCell>
        <mxCell id="t37LZE1mV-UA1u1x_BtD-70" style="edgeStyle=orthogonalEdgeStyle;rounded=0;orthogonalLoop=1;jettySize=auto;html=1;exitX=1;exitY=0.5;exitDx=0;exitDy=0;" parent="1" source="t37LZE1mV-UA1u1x_BtD-59" target="t37LZE1mV-UA1u1x_BtD-78" edge="1">
          <mxGeometry relative="1" as="geometry">
            <mxPoint x="380" y="1470" as="sourcePoint" />
          </mxGeometry>
        </mxCell>
        <mxCell id="t37LZE1mV-UA1u1x_BtD-71" style="edgeStyle=orthogonalEdgeStyle;rounded=0;orthogonalLoop=1;jettySize=auto;html=1;exitX=1;exitY=0.5;exitDx=0;exitDy=0;entryX=0;entryY=0.5;entryDx=0;entryDy=0;" parent="1" source="t37LZE1mV-UA1u1x_BtD-60" target="t37LZE1mV-UA1u1x_BtD-79" edge="1">
          <mxGeometry relative="1" as="geometry">
            <mxPoint x="380" y="1410" as="sourcePoint" />
          </mxGeometry>
        </mxCell>
        <mxCell id="t37LZE1mV-UA1u1x_BtD-72" style="edgeStyle=orthogonalEdgeStyle;rounded=0;orthogonalLoop=1;jettySize=auto;html=1;exitX=1;exitY=0.5;exitDx=0;exitDy=0;entryX=0;entryY=0.5;entryDx=0;entryDy=0;" parent="1" source="t37LZE1mV-UA1u1x_BtD-61" target="t37LZE1mV-UA1u1x_BtD-80" edge="1">
          <mxGeometry relative="1" as="geometry">
            <mxPoint x="380" y="1350" as="sourcePoint" />
            <Array as="points" />
          </mxGeometry>
        </mxCell>
        <mxCell id="t37LZE1mV-UA1u1x_BtD-73" style="edgeStyle=orthogonalEdgeStyle;rounded=0;orthogonalLoop=1;jettySize=auto;html=1;exitX=1;exitY=0.5;exitDx=0;exitDy=0;entryX=0;entryY=0.5;entryDx=0;entryDy=0;" parent="1" source="t37LZE1mV-UA1u1x_BtD-62" target="t37LZE1mV-UA1u1x_BtD-81" edge="1">
          <mxGeometry relative="1" as="geometry">
            <mxPoint x="380" y="1530" as="sourcePoint" />
          </mxGeometry>
        </mxCell>
        <mxCell id="t37LZE1mV-UA1u1x_BtD-74" style="edgeStyle=orthogonalEdgeStyle;rounded=0;orthogonalLoop=1;jettySize=auto;html=1;exitX=1;exitY=0.5;exitDx=0;exitDy=0;entryX=0;entryY=0.5;entryDx=0;entryDy=0;" parent="1" source="t37LZE1mV-UA1u1x_BtD-63" target="t37LZE1mV-UA1u1x_BtD-82" edge="1">
          <mxGeometry relative="1" as="geometry">
            <mxPoint x="380" y="1590" as="sourcePoint" />
          </mxGeometry>
        </mxCell>
        <mxCell id="t37LZE1mV-UA1u1x_BtD-75" style="edgeStyle=orthogonalEdgeStyle;rounded=0;orthogonalLoop=1;jettySize=auto;html=1;exitX=1;exitY=0.5;exitDx=0;exitDy=0;entryX=0;entryY=0.5;entryDx=0;entryDy=0;" parent="1" target="t37LZE1mV-UA1u1x_BtD-83" edge="1">
          <mxGeometry relative="1" as="geometry">
            <mxPoint x="380" y="1650" as="sourcePoint" />
          </mxGeometry>
        </mxCell>
        <mxCell id="t37LZE1mV-UA1u1x_BtD-76" style="edgeStyle=orthogonalEdgeStyle;rounded=0;orthogonalLoop=1;jettySize=auto;html=1;exitX=1;exitY=0.5;exitDx=0;exitDy=0;entryX=0;entryY=0.5;entryDx=0;entryDy=0;" parent="1" target="t37LZE1mV-UA1u1x_BtD-84" edge="1">
          <mxGeometry relative="1" as="geometry">
            <mxPoint x="380" y="1710" as="sourcePoint" />
          </mxGeometry>
        </mxCell>
        <mxCell id="t37LZE1mV-UA1u1x_BtD-77" style="edgeStyle=orthogonalEdgeStyle;rounded=0;orthogonalLoop=1;jettySize=auto;html=1;exitX=1;exitY=0.5;exitDx=0;exitDy=0;entryX=0;entryY=0.5;entryDx=0;entryDy=0;" parent="1" target="t37LZE1mV-UA1u1x_BtD-85" edge="1">
          <mxGeometry relative="1" as="geometry">
            <mxPoint x="380" y="1770" as="sourcePoint" />
          </mxGeometry>
        </mxCell>
        <mxCell id="t37LZE1mV-UA1u1x_BtD-78" value="" style="rounded=1;whiteSpace=wrap;html=1;fontSize=12;glass=0;strokeWidth=1;shadow=0;fillColor=#fff2cc;strokeColor=#d6b656;" parent="1" vertex="1">
          <mxGeometry x="380" y="1450" width="160" height="40" as="geometry" />
        </mxCell>
        <mxCell id="t37LZE1mV-UA1u1x_BtD-79" value="" style="rounded=1;whiteSpace=wrap;html=1;fontSize=11;glass=0;strokeWidth=1;shadow=0;fillColor=#fff2cc;strokeColor=#d6b656;" parent="1" vertex="1">
          <mxGeometry x="380" y="1390" width="160" height="40" as="geometry" />
        </mxCell>
        <mxCell id="t37LZE1mV-UA1u1x_BtD-80" value="&lt;div&gt;&amp;nbsp; &amp;nbsp;textbutton _(&quot;Start&quot;):&lt;/div&gt;&lt;div&gt;&lt;span style=&quot;background-color: transparent; color: light-dark(rgb(0, 0, 0), rgb(255, 255, 255));&quot;&gt;&amp;nbsp; &amp;nbsp; &amp;nbsp; &amp;nbsp;text_style &quot;&amp;lt;styleName&amp;gt;&lt;/span&gt;&lt;/div&gt;" style="rounded=1;whiteSpace=wrap;html=1;fontSize=11;glass=0;strokeWidth=1;shadow=0;fillColor=#fff2cc;strokeColor=#d6b656;align=left;" parent="1" vertex="1">
          <mxGeometry x="380" y="1330" width="160" height="40" as="geometry" />
        </mxCell>
        <mxCell id="t37LZE1mV-UA1u1x_BtD-81" value="" style="rounded=1;whiteSpace=wrap;html=1;fontSize=12;glass=0;strokeWidth=1;shadow=0;fillColor=#fff2cc;strokeColor=#d6b656;" parent="1" vertex="1">
          <mxGeometry x="380" y="1510" width="160" height="40" as="geometry" />
        </mxCell>
        <mxCell id="t37LZE1mV-UA1u1x_BtD-82" value="" style="rounded=1;whiteSpace=wrap;html=1;fontSize=12;glass=0;strokeWidth=1;shadow=0;fillColor=#fff2cc;strokeColor=#d6b656;" parent="1" vertex="1">
          <mxGeometry x="380" y="1570" width="160" height="40" as="geometry" />
        </mxCell>
        <mxCell id="t37LZE1mV-UA1u1x_BtD-83" value="" style="rounded=1;whiteSpace=wrap;html=1;fontSize=12;glass=0;strokeWidth=1;shadow=0;fillColor=#fff2cc;strokeColor=#d6b656;" parent="1" vertex="1">
          <mxGeometry x="380" y="1630" width="160" height="40" as="geometry" />
        </mxCell>
        <mxCell id="t37LZE1mV-UA1u1x_BtD-84" value="" style="rounded=1;whiteSpace=wrap;html=1;fontSize=12;glass=0;strokeWidth=1;shadow=0;fillColor=#fff2cc;strokeColor=#d6b656;" parent="1" vertex="1">
          <mxGeometry x="380" y="1690" width="160" height="40" as="geometry" />
        </mxCell>
        <mxCell id="t37LZE1mV-UA1u1x_BtD-85" value="" style="rounded=1;whiteSpace=wrap;html=1;fontSize=12;glass=0;strokeWidth=1;shadow=0;fillColor=#fff2cc;strokeColor=#d6b656;" parent="1" vertex="1">
          <mxGeometry x="380" y="1750" width="160" height="40" as="geometry" />
        </mxCell>
      </root>
    </mxGraphModel>
  </diagram>
  <diagram id="90O7jrnK_9mJu7h8bWJ7" name="Persistent">
    <mxGraphModel dx="874" dy="708" grid="1" gridSize="10" guides="1" tooltips="1" connect="1" arrows="1" fold="1" page="1" pageScale="1" pageWidth="850" pageHeight="1100" math="0" shadow="0">
      <root>
        <mxCell id="0" />
        <mxCell id="1" parent="0" />
        <mxCell id="PCr2B1UvSHwsCll-fx92-1" value="$ persistent.&amp;lt;boolName&amp;gt;" style="rounded=1;whiteSpace=wrap;html=1;fillColor=#dae8fc;strokeColor=#6c8ebf;strokeWidth=3;" vertex="1" parent="1">
          <mxGeometry x="60" y="20" width="180" height="50" as="geometry" />
        </mxCell>
        <mxCell id="PCr2B1UvSHwsCll-fx92-2" style="edgeStyle=orthogonalEdgeStyle;rounded=0;orthogonalLoop=1;jettySize=auto;html=1;exitX=1;exitY=0.5;exitDx=0;exitDy=0;" edge="1" parent="1" source="PCr2B1UvSHwsCll-fx92-3" target="PCr2B1UvSHwsCll-fx92-18">
          <mxGeometry relative="1" as="geometry" />
        </mxCell>
        <mxCell id="PCr2B1UvSHwsCll-fx92-3" value="journal_unlock" style="rounded=1;whiteSpace=wrap;html=1;fontSize=12;glass=0;strokeWidth=1;shadow=0;fillColor=#fff2cc;strokeColor=#d6b656;" vertex="1" parent="1">
          <mxGeometry x="20" y="200" width="120" height="40" as="geometry" />
        </mxCell>
        <mxCell id="PCr2B1UvSHwsCll-fx92-4" style="edgeStyle=orthogonalEdgeStyle;rounded=0;orthogonalLoop=1;jettySize=auto;html=1;exitX=1;exitY=0.5;exitDx=0;exitDy=0;entryX=0;entryY=0.5;entryDx=0;entryDy=0;" edge="1" parent="1" source="PCr2B1UvSHwsCll-fx92-5" target="PCr2B1UvSHwsCll-fx92-19">
          <mxGeometry relative="1" as="geometry" />
        </mxCell>
        <mxCell id="PCr2B1UvSHwsCll-fx92-5" value="taro_claudia_interest" style="rounded=1;whiteSpace=wrap;html=1;fontSize=11;glass=0;strokeWidth=1;shadow=0;fillColor=#fff2cc;strokeColor=#d6b656;" vertex="1" parent="1">
          <mxGeometry x="20" y="140" width="120" height="40" as="geometry" />
        </mxCell>
        <mxCell id="PCr2B1UvSHwsCll-fx92-6" style="edgeStyle=orthogonalEdgeStyle;rounded=0;orthogonalLoop=1;jettySize=auto;html=1;exitX=1;exitY=0.5;exitDx=0;exitDy=0;entryX=0;entryY=0.5;entryDx=0;entryDy=0;" edge="1" parent="1" source="PCr2B1UvSHwsCll-fx92-7" target="PCr2B1UvSHwsCll-fx92-20">
          <mxGeometry relative="1" as="geometry" />
        </mxCell>
        <mxCell id="PCr2B1UvSHwsCll-fx92-7" value="claudia_hobby_barista" style="rounded=1;whiteSpace=wrap;html=1;fontSize=11;glass=0;strokeWidth=1;shadow=0;fillColor=#fff2cc;strokeColor=#d6b656;" vertex="1" parent="1">
          <mxGeometry x="20" y="80" width="120" height="40" as="geometry" />
        </mxCell>
        <mxCell id="PCr2B1UvSHwsCll-fx92-8" style="edgeStyle=orthogonalEdgeStyle;rounded=0;orthogonalLoop=1;jettySize=auto;html=1;exitX=1;exitY=0.5;exitDx=0;exitDy=0;entryX=0;entryY=0.5;entryDx=0;entryDy=0;" edge="1" parent="1" source="PCr2B1UvSHwsCll-fx92-9" target="PCr2B1UvSHwsCll-fx92-21">
          <mxGeometry relative="1" as="geometry" />
        </mxCell>
        <mxCell id="PCr2B1UvSHwsCll-fx92-9" value="" style="rounded=1;whiteSpace=wrap;html=1;fontSize=12;glass=0;strokeWidth=1;shadow=0;fillColor=#fff2cc;strokeColor=#d6b656;" vertex="1" parent="1">
          <mxGeometry x="20" y="260" width="120" height="40" as="geometry" />
        </mxCell>
        <mxCell id="PCr2B1UvSHwsCll-fx92-10" style="edgeStyle=orthogonalEdgeStyle;rounded=0;orthogonalLoop=1;jettySize=auto;html=1;exitX=1;exitY=0.5;exitDx=0;exitDy=0;entryX=0;entryY=0.5;entryDx=0;entryDy=0;" edge="1" parent="1" source="PCr2B1UvSHwsCll-fx92-11" target="PCr2B1UvSHwsCll-fx92-22">
          <mxGeometry relative="1" as="geometry" />
        </mxCell>
        <mxCell id="PCr2B1UvSHwsCll-fx92-11" value="" style="rounded=1;whiteSpace=wrap;html=1;fontSize=12;glass=0;strokeWidth=1;shadow=0;fillColor=#fff2cc;strokeColor=#d6b656;" vertex="1" parent="1">
          <mxGeometry x="20" y="320" width="120" height="40" as="geometry" />
        </mxCell>
        <mxCell id="PCr2B1UvSHwsCll-fx92-12" style="edgeStyle=orthogonalEdgeStyle;rounded=0;orthogonalLoop=1;jettySize=auto;html=1;exitX=1;exitY=0.5;exitDx=0;exitDy=0;entryX=0;entryY=0.5;entryDx=0;entryDy=0;" edge="1" parent="1" source="PCr2B1UvSHwsCll-fx92-13" target="PCr2B1UvSHwsCll-fx92-23">
          <mxGeometry relative="1" as="geometry" />
        </mxCell>
        <mxCell id="PCr2B1UvSHwsCll-fx92-13" value="" style="rounded=1;whiteSpace=wrap;html=1;fontSize=12;glass=0;strokeWidth=1;shadow=0;fillColor=#fff2cc;strokeColor=#d6b656;" vertex="1" parent="1">
          <mxGeometry x="20" y="380" width="120" height="40" as="geometry" />
        </mxCell>
        <mxCell id="PCr2B1UvSHwsCll-fx92-14" style="edgeStyle=orthogonalEdgeStyle;rounded=0;orthogonalLoop=1;jettySize=auto;html=1;exitX=1;exitY=0.5;exitDx=0;exitDy=0;entryX=0;entryY=0.5;entryDx=0;entryDy=0;" edge="1" parent="1" source="PCr2B1UvSHwsCll-fx92-15" target="PCr2B1UvSHwsCll-fx92-24">
          <mxGeometry relative="1" as="geometry" />
        </mxCell>
        <mxCell id="PCr2B1UvSHwsCll-fx92-15" value="" style="rounded=1;whiteSpace=wrap;html=1;fontSize=12;glass=0;strokeWidth=1;shadow=0;fillColor=#fff2cc;strokeColor=#d6b656;" vertex="1" parent="1">
          <mxGeometry x="20" y="440" width="120" height="40" as="geometry" />
        </mxCell>
        <mxCell id="PCr2B1UvSHwsCll-fx92-16" style="edgeStyle=orthogonalEdgeStyle;rounded=0;orthogonalLoop=1;jettySize=auto;html=1;exitX=1;exitY=0.5;exitDx=0;exitDy=0;entryX=0;entryY=0.5;entryDx=0;entryDy=0;" edge="1" parent="1" source="PCr2B1UvSHwsCll-fx92-17" target="PCr2B1UvSHwsCll-fx92-25">
          <mxGeometry relative="1" as="geometry" />
        </mxCell>
        <mxCell id="PCr2B1UvSHwsCll-fx92-17" value="" style="rounded=1;whiteSpace=wrap;html=1;fontSize=12;glass=0;strokeWidth=1;shadow=0;fillColor=#fff2cc;strokeColor=#d6b656;" vertex="1" parent="1">
          <mxGeometry x="20" y="500" width="120" height="40" as="geometry" />
        </mxCell>
        <mxCell id="PCr2B1UvSHwsCll-fx92-18" value="Displays the &quot;journal&quot; button on quick_menu" style="rounded=1;whiteSpace=wrap;html=1;fontSize=11;glass=0;strokeWidth=1;shadow=0;fillColor=#fff2cc;strokeColor=#d6b656;" vertex="1" parent="1">
          <mxGeometry x="160" y="200" width="120" height="40" as="geometry" />
        </mxCell>
        <mxCell id="PCr2B1UvSHwsCll-fx92-19" value="The relationship meter bar" style="rounded=1;whiteSpace=wrap;html=1;fontSize=11;glass=0;strokeWidth=1;shadow=0;fillColor=#fff2cc;strokeColor=#d6b656;" vertex="1" parent="1">
          <mxGeometry x="160" y="140" width="120" height="40" as="geometry" />
        </mxCell>
        <mxCell id="PCr2B1UvSHwsCll-fx92-20" value="&lt;font style=&quot;font-size: 10px;&quot;&gt;Player learns Claudia&#39;s hobby is being a barista&lt;/font&gt;" style="rounded=1;whiteSpace=wrap;html=1;fontSize=11;glass=0;strokeWidth=1;shadow=0;fillColor=#fff2cc;strokeColor=#d6b656;" vertex="1" parent="1">
          <mxGeometry x="160" y="80" width="120" height="40" as="geometry" />
        </mxCell>
        <mxCell id="PCr2B1UvSHwsCll-fx92-21" value="" style="rounded=1;whiteSpace=wrap;html=1;fontSize=12;glass=0;strokeWidth=1;shadow=0;fillColor=#fff2cc;strokeColor=#d6b656;" vertex="1" parent="1">
          <mxGeometry x="160" y="260" width="120" height="40" as="geometry" />
        </mxCell>
        <mxCell id="PCr2B1UvSHwsCll-fx92-22" value="" style="rounded=1;whiteSpace=wrap;html=1;fontSize=12;glass=0;strokeWidth=1;shadow=0;fillColor=#fff2cc;strokeColor=#d6b656;" vertex="1" parent="1">
          <mxGeometry x="160" y="320" width="120" height="40" as="geometry" />
        </mxCell>
        <mxCell id="PCr2B1UvSHwsCll-fx92-23" value="" style="rounded=1;whiteSpace=wrap;html=1;fontSize=12;glass=0;strokeWidth=1;shadow=0;fillColor=#fff2cc;strokeColor=#d6b656;" vertex="1" parent="1">
          <mxGeometry x="160" y="380" width="120" height="40" as="geometry" />
        </mxCell>
        <mxCell id="PCr2B1UvSHwsCll-fx92-24" value="" style="rounded=1;whiteSpace=wrap;html=1;fontSize=12;glass=0;strokeWidth=1;shadow=0;fillColor=#fff2cc;strokeColor=#d6b656;" vertex="1" parent="1">
          <mxGeometry x="160" y="440" width="120" height="40" as="geometry" />
        </mxCell>
        <mxCell id="PCr2B1UvSHwsCll-fx92-25" value="" style="rounded=1;whiteSpace=wrap;html=1;fontSize=12;glass=0;strokeWidth=1;shadow=0;fillColor=#fff2cc;strokeColor=#d6b656;" vertex="1" parent="1">
          <mxGeometry x="160" y="500" width="120" height="40" as="geometry" />
        </mxCell>
      </root>
    </mxGraphModel>
  </diagram>
  <diagram id="AeWQ_96lru9379sXK22r" name="Script Test">
    <mxGraphModel dx="870" dy="993" grid="1" gridSize="10" guides="1" tooltips="1" connect="1" arrows="1" fold="1" page="1" pageScale="1" pageWidth="850" pageHeight="1100" math="0" shadow="0">
      <root>
        <mxCell id="0" />
        <mxCell id="1" parent="0" />
        <mxCell id="hUQX8ODWX4tmyuytHKku-2" value="label _____:" style="rounded=0;whiteSpace=wrap;html=1;fillColor=#d5e8d4;strokeColor=#82b366;movable=1;resizable=1;rotatable=1;deletable=1;editable=1;locked=0;connectable=1;align=left;spacing=10;" vertex="1" parent="1">
          <mxGeometry x="20" y="20" width="90" height="40" as="geometry" />
        </mxCell>
        <mxCell id="hUQX8ODWX4tmyuytHKku-3" value="tsukune &quot;&quot;" style="rounded=0;whiteSpace=wrap;html=1;fillColor=#dae8fc;strokeColor=#6c8ebf;movable=1;resizable=1;rotatable=1;deletable=1;editable=1;locked=0;connectable=1;align=left;spacing=10;" vertex="1" parent="1">
          <mxGeometry x="40" y="5270" width="790" height="40" as="geometry" />
        </mxCell>
        <mxCell id="hUQX8ODWX4tmyuytHKku-4" value="alex &quot;&quot;" style="rounded=0;whiteSpace=wrap;html=1;fillColor=#e1d5e7;strokeColor=#9673a6;movable=1;resizable=1;rotatable=1;deletable=1;editable=1;locked=0;connectable=1;align=left;spacing=10;" vertex="1" parent="1">
          <mxGeometry x="40" y="5170" width="790" height="40" as="geometry" />
        </mxCell>
        <mxCell id="hUQX8ODWX4tmyuytHKku-5" value="claudia &quot;&quot;" style="rounded=0;whiteSpace=wrap;html=1;fillColor=#ffe6cc;strokeColor=#d79b00;movable=1;resizable=1;rotatable=1;deletable=1;editable=1;locked=0;connectable=1;align=left;spacing=10;" vertex="1" parent="1">
          <mxGeometry x="40" y="5220" width="790" height="40" as="geometry" />
        </mxCell>
        <mxCell id="hUQX8ODWX4tmyuytHKku-7" value="alexJournal &quot;&lt;i style=&quot;background-color: transparent; color: light-dark(rgb(255, 255, 255), rgb(18, 18, 18));&quot;&gt;I slept like usual, another nightmare. The thing is that I can&#39;t remember what the nightmare even was. All I can recall is me waking up feeling afraid with sweat all over me. I hate waking up that way almost every morning. Hopefully the nightmares settle down one of these days.&lt;/i&gt;&lt;span style=&quot;background-color: transparent; color: light-dark(rgb(255, 255, 255), rgb(18, 18, 18));&quot;&gt;&quot;&lt;/span&gt;" style="rounded=0;whiteSpace=wrap;html=1;fillColor=#647687;strokeColor=#314354;movable=1;resizable=1;rotatable=1;deletable=1;editable=1;locked=0;connectable=1;align=left;spacing=10;fontColor=#ffffff;" vertex="1" parent="1">
          <mxGeometry x="40" y="120" width="790" height="60" as="geometry" />
        </mxCell>
        <mxCell id="hUQX8ODWX4tmyuytHKku-8" value="menu:" style="rounded=0;whiteSpace=wrap;html=1;fillColor=#e3c800;strokeColor=#B09500;movable=1;resizable=1;rotatable=1;deletable=1;editable=1;locked=0;connectable=1;align=left;spacing=10;fontColor=#000000;" vertex="1" parent="1">
          <mxGeometry x="40" y="5320" width="50" height="40" as="geometry" />
        </mxCell>
        <mxCell id="hUQX8ODWX4tmyuytHKku-9" value="Option 1" style="rounded=0;whiteSpace=wrap;html=1;fillColor=#f0a30a;strokeColor=#BD7000;movable=1;resizable=1;rotatable=1;deletable=1;editable=1;locked=0;connectable=1;align=left;spacing=10;fontColor=#000000;" vertex="1" parent="1">
          <mxGeometry x="60" y="5370" width="70" height="40" as="geometry" />
        </mxCell>
        <mxCell id="hUQX8ODWX4tmyuytHKku-10" value="Option 2" style="rounded=0;whiteSpace=wrap;html=1;fillColor=#f0a30a;strokeColor=#BD7000;movable=1;resizable=1;rotatable=1;deletable=1;editable=1;locked=0;connectable=1;align=left;spacing=10;fontColor=#000000;" vertex="1" parent="1">
          <mxGeometry x="60" y="5420" width="70" height="40" as="geometry" />
        </mxCell>
        <mxCell id="hUQX8ODWX4tmyuytHKku-11" value="alexJournal &quot;&lt;i style=&quot;background-color: transparent; color: light-dark(rgb(255, 255, 255), rgb(18, 18, 18));&quot;&gt;June&amp;nbsp;12&lt;/i&gt;&lt;sup style=&quot;background-color: transparent; color: light-dark(rgb(255, 255, 255), rgb(18, 18, 18));&quot;&gt;&lt;i&gt;th&lt;/i&gt;&lt;/sup&gt;&lt;i style=&quot;background-color: transparent; color: light-dark(rgb(255, 255, 255), rgb(18, 18, 18));&quot;&gt;, 2023 – Monday @ 7:05 AM&lt;/i&gt;&lt;span style=&quot;background-color: transparent; color: light-dark(rgb(255, 255, 255), rgb(18, 18, 18));&quot;&gt;&quot;&lt;/span&gt;" style="rounded=0;whiteSpace=wrap;html=1;fillColor=#647687;strokeColor=#314354;movable=1;resizable=1;rotatable=1;deletable=1;editable=1;locked=0;connectable=1;align=left;spacing=10;fontColor=#ffffff;" vertex="1" parent="1">
          <mxGeometry x="40" y="70" width="790" height="40" as="geometry" />
        </mxCell>
        <mxCell id="hUQX8ODWX4tmyuytHKku-12" value="alexJournal &quot;&lt;span style=&quot;background-color: transparent; color: light-dark(rgb(255, 255, 255), rgb(18, 18, 18));&quot;&gt;&quot;&lt;/span&gt;" style="rounded=0;whiteSpace=wrap;html=1;fillColor=#647687;strokeColor=#314354;movable=1;resizable=1;rotatable=1;deletable=1;editable=1;locked=0;connectable=1;align=left;spacing=10;fontColor=#ffffff;" vertex="1" parent="1">
          <mxGeometry x="40" y="5120" width="790" height="40" as="geometry" />
        </mxCell>
        <mxCell id="hUQX8ODWX4tmyuytHKku-13" value="alexJournal &quot;&lt;i style=&quot;background-color: transparent; color: light-dark(rgb(255, 255, 255), rgb(18, 18, 18));&quot;&gt;Other than that, I&#39;m really liking doing these journal entries.&amp;nbsp;Sure, it&#39;s weird to feel like you&#39;re talking to a wall at first, but there&#39;s something therapeutic about it. It&#39;s like someone is letting&amp;nbsp;you vent to them for as long as you&#39;re willing to keep writing with a&amp;nbsp;pen. It&#39;s nice to feel listened to, even if it&#39;s just a little journal holding all my thoughts together.&lt;/i&gt;&lt;i style=&quot;background-color: transparent; color: light-dark(rgb(255, 255, 255), rgb(18, 18, 18));&quot;&gt;.&lt;/i&gt;&lt;span style=&quot;background-color: transparent; color: light-dark(rgb(255, 255, 255), rgb(18, 18, 18));&quot;&gt;&quot;&lt;/span&gt;" style="rounded=0;whiteSpace=wrap;html=1;fillColor=#647687;strokeColor=#314354;movable=1;resizable=1;rotatable=1;deletable=1;editable=1;locked=0;connectable=1;align=left;spacing=10;fontColor=#ffffff;" vertex="1" parent="1">
          <mxGeometry x="40" y="190" width="790" height="60" as="geometry" />
        </mxCell>
        <mxCell id="hUQX8ODWX4tmyuytHKku-14" value="alexJournal &quot;&lt;i style=&quot;background-color: transparent; color: light-dark(rgb(255, 255, 255), rgb(18, 18, 18));&quot;&gt;There is something that I recently realized that I&#39;m struggling with. I didn&#39;t realize that I was feeling {sc=3}l o n e l y{/sc} for&amp;nbsp;as long as I have. I thought I was just uncomfortable about being&amp;nbsp;alone for too long at a time, but I&#39;m also horrible at reaching out&amp;nbsp;to people. I&#39;d like to stay on top of talking with people, but it&amp;nbsp;just ends up slipping my mind. I forget to talk to people until it&#39;s&amp;nbsp;been so long that it&#39;d feel out of place for me to reach out to them.&lt;/i&gt;&lt;span style=&quot;background-color: transparent; color: light-dark(rgb(255, 255, 255), rgb(18, 18, 18));&quot;&gt;&quot;&lt;/span&gt;" style="rounded=0;whiteSpace=wrap;html=1;fillColor=#647687;strokeColor=#314354;movable=1;resizable=1;rotatable=1;deletable=1;editable=1;locked=0;connectable=1;align=left;spacing=10;fontColor=#ffffff;" vertex="1" parent="1">
          <mxGeometry x="40" y="260" width="790" height="80" as="geometry" />
        </mxCell>
        <mxCell id="hUQX8ODWX4tmyuytHKku-15" value="alexJournal &quot;&lt;i style=&quot;background-color: transparent; color: light-dark(rgb(255, 255, 255), rgb(18, 18, 18));&quot;&gt;In fact, I actually noticed that I&#39;m starting to learn to identify my emotions better after journaling for the past month. I make it a point to ask myself, “What am I feeling?” when I write these entries because it&#39;s more than just venting about my problems. If I know what I&#39;m feeling, then it makes it easier to learn how to manage&amp;nbsp;my emotions better. I guess re-learning emotions is common after&amp;nbsp;suppressing my emotions for so many years...&lt;/i&gt;&lt;span style=&quot;background-color: transparent; color: light-dark(rgb(255, 255, 255), rgb(18, 18, 18));&quot;&gt;&quot;&lt;/span&gt;" style="rounded=0;whiteSpace=wrap;html=1;fillColor=#647687;strokeColor=#314354;movable=1;resizable=1;rotatable=1;deletable=1;editable=1;locked=0;connectable=1;align=left;spacing=10;fontColor=#ffffff;" vertex="1" parent="1">
          <mxGeometry x="40" y="350" width="790" height="80" as="geometry" />
        </mxCell>
        <mxCell id="hUQX8ODWX4tmyuytHKku-16" value="&quot;&lt;i style=&quot;background-color: transparent; color: light-dark(rgb(0, 0, 0), rgb(255, 255, 255));&quot;&gt;It&#39;s usually never noisy this early in the morning unless it&#39;s the landscapers. I&#39;ve been hearing noise all morning. I wonder what it&#39;s&amp;nbsp;all about?&lt;/i&gt;&lt;span style=&quot;background-color: transparent; color: light-dark(rgb(0, 0, 0), rgb(255, 255, 255));&quot;&gt;&quot;&lt;/span&gt;" style="rounded=0;whiteSpace=wrap;html=1;align=left;spacing=10;" vertex="1" parent="1">
          <mxGeometry x="40" y="440" width="790" height="40" as="geometry" />
        </mxCell>
        <mxCell id="hUQX8ODWX4tmyuytHKku-17" value="claudia &quot;&lt;span style=&quot;background-color: transparent; color: light-dark(rgb(0, 0, 0), rgb(255, 255, 255));&quot;&gt;Thanks for helping me with moving in Toby! I appreciate it so much!&lt;/span&gt;&lt;span style=&quot;background-color: transparent; color: light-dark(rgb(0, 0, 0), rgb(255, 255, 255));&quot;&gt;&quot;&lt;/span&gt;" style="rounded=0;whiteSpace=wrap;html=1;fillColor=#ffe6cc;strokeColor=#d79b00;movable=1;resizable=1;rotatable=1;deletable=1;editable=1;locked=0;connectable=1;align=left;spacing=10;" vertex="1" parent="1">
          <mxGeometry x="40" y="490" width="790" height="40" as="geometry" />
        </mxCell>
        <mxCell id="hUQX8ODWX4tmyuytHKku-18" value="alex &quot;&lt;span style=&quot;background-color: transparent; color: light-dark(rgb(0, 0, 0), rgb(255, 255, 255));&quot;&gt;O-oh... Hey there!&lt;/span&gt;&lt;span style=&quot;background-color: transparent; color: light-dark(rgb(0, 0, 0), rgb(255, 255, 255));&quot;&gt;&quot;&lt;/span&gt;" style="rounded=0;whiteSpace=wrap;html=1;fillColor=#e1d5e7;strokeColor=#9673a6;movable=1;resizable=1;rotatable=1;deletable=1;editable=1;locked=0;connectable=1;align=left;spacing=10;" vertex="1" parent="1">
          <mxGeometry x="40" y="540" width="790" height="40" as="geometry" />
        </mxCell>
        <mxCell id="hUQX8ODWX4tmyuytHKku-19" value="&quot;&lt;i&gt;Smooth.&lt;/i&gt;&lt;span style=&quot;background-color: transparent; color: light-dark(rgb(0, 0, 0), rgb(255, 255, 255));&quot;&gt;&quot;&lt;/span&gt;" style="rounded=0;whiteSpace=wrap;html=1;align=left;spacing=10;" vertex="1" parent="1">
          <mxGeometry x="40" y="590" width="790" height="40" as="geometry" />
        </mxCell>
        <mxCell id="hUQX8ODWX4tmyuytHKku-20" value="claudia &quot;&lt;span style=&quot;background-color: transparent;&quot;&gt;Oh hey there! I didn&#39;t mean to startle you. I just moved my things in. Were my friend and I too loud?&lt;font&gt;&quot;&lt;/font&gt;&lt;/span&gt;" style="rounded=0;whiteSpace=wrap;html=1;fillColor=#ffe6cc;strokeColor=#d79b00;movable=1;resizable=1;rotatable=1;deletable=1;editable=1;locked=0;connectable=1;align=left;spacing=10;fontColor=#000000;" vertex="1" parent="1">
          <mxGeometry x="40" y="640" width="790" height="40" as="geometry" />
        </mxCell>
        <mxCell id="hUQX8ODWX4tmyuytHKku-21" value="alex &quot;&lt;span style=&quot;background-color: transparent; color: light-dark(rgb(0, 0, 0), rgb(255, 255, 255));&quot;&gt;You just moved things in? Oh, which unit are you in?&lt;/span&gt;&lt;span style=&quot;background-color: transparent; color: light-dark(rgb(0, 0, 0), rgb(255, 255, 255));&quot;&gt;&quot;&lt;/span&gt;" style="rounded=0;whiteSpace=wrap;html=1;fillColor=#e1d5e7;strokeColor=#9673a6;movable=1;resizable=1;rotatable=1;deletable=1;editable=1;locked=0;connectable=1;align=left;spacing=10;" vertex="1" parent="1">
          <mxGeometry x="40" y="690" width="790" height="40" as="geometry" />
        </mxCell>
        <mxCell id="hUQX8ODWX4tmyuytHKku-22" value="claudia &quot;&lt;span style=&quot;background-color: transparent;&quot;&gt;&lt;font&gt;I&#39;m in there. It took a couple hours to get everything out of the van, but I still have to unpack stuff. It&#39;ll be a while before everything is out of those boxes!&lt;font&gt;&quot;&lt;/font&gt;&lt;/font&gt;&lt;/span&gt;" style="rounded=0;whiteSpace=wrap;html=1;fillColor=#ffe6cc;strokeColor=#d79b00;movable=1;resizable=1;rotatable=1;deletable=1;editable=1;locked=0;connectable=1;align=left;spacing=10;fontColor=#000000;" vertex="1" parent="1">
          <mxGeometry x="40" y="740" width="790" height="40" as="geometry" />
        </mxCell>
        <mxCell id="hUQX8ODWX4tmyuytHKku-23" value="&lt;font style=&quot;color: rgb(0, 0, 0);&quot;&gt;claudia &quot;&lt;span style=&quot;background-color: transparent;&quot;&gt;&lt;font&gt;&lt;font&gt;Moving to a new place can be pretty challenging, but I needed the change of scenery.&lt;font&gt;&quot;&lt;/font&gt;&lt;/font&gt;&lt;/font&gt;&lt;/span&gt;&lt;/font&gt;" style="rounded=0;whiteSpace=wrap;html=1;fillColor=#ffe6cc;strokeColor=#d79b00;movable=1;resizable=1;rotatable=1;deletable=1;editable=1;locked=0;connectable=1;align=left;spacing=10;" vertex="1" parent="1">
          <mxGeometry x="40" y="790" width="790" height="40" as="geometry" />
        </mxCell>
        <mxCell id="hUQX8ODWX4tmyuytHKku-24" value="alex &quot;&lt;span style=&quot;background-color: transparent; color: light-dark(rgb(0, 0, 0), rgb(255, 255, 255));&quot;&gt;It can be good to move to a new area. Fresh starts, you know?&lt;/span&gt;&lt;span style=&quot;background-color: transparent; color: light-dark(rgb(0, 0, 0), rgb(255, 255, 255));&quot;&gt;&quot;&lt;/span&gt;" style="rounded=0;whiteSpace=wrap;html=1;fillColor=#e1d5e7;strokeColor=#9673a6;movable=1;resizable=1;rotatable=1;deletable=1;editable=1;locked=0;connectable=1;align=left;spacing=10;" vertex="1" parent="1">
          <mxGeometry x="40" y="840" width="790" height="40" as="geometry" />
        </mxCell>
        <mxCell id="hUQX8ODWX4tmyuytHKku-25" value="&lt;font style=&quot;color: rgb(0, 0, 0);&quot;&gt;claudia &quot;&lt;span style=&quot;background-color: transparent;&quot;&gt;&lt;font style=&quot;&quot;&gt;&lt;font style=&quot;&quot;&gt;&lt;font style=&quot;&quot;&gt;I&#39;m definitely with you there. My name&#39;s Claudia. What about you?&quot;&lt;/font&gt;&lt;/font&gt;&lt;/font&gt;&lt;/span&gt;&lt;/font&gt;" style="rounded=0;whiteSpace=wrap;html=1;fillColor=#ffe6cc;strokeColor=#d79b00;movable=1;resizable=1;rotatable=1;deletable=1;editable=1;locked=0;connectable=1;align=left;spacing=10;" vertex="1" parent="1">
          <mxGeometry x="40" y="890" width="790" height="40" as="geometry" />
        </mxCell>
        <mxCell id="hUQX8ODWX4tmyuytHKku-26" value="alex &quot;&lt;span style=&quot;background-color: transparent;&quot;&gt;Oh, I&#39;m Alex. I don&#39;t have any nicknames, though. My name kinda is too short for that&quot;&lt;br&gt;&lt;/span&gt;" style="rounded=0;whiteSpace=wrap;html=1;fillColor=#e1d5e7;strokeColor=#9673a6;movable=1;resizable=1;rotatable=1;deletable=1;editable=1;locked=0;connectable=1;align=left;spacing=10;" vertex="1" parent="1">
          <mxGeometry x="40" y="940" width="790" height="40" as="geometry" />
        </mxCell>
        <mxCell id="hUQX8ODWX4tmyuytHKku-27" value="&quot;&lt;i style=&quot;background-color: transparent; color: light-dark(rgb(0, 0, 0), rgb(255, 255, 255));&quot;&gt;I hope I&#39;m not being too awkward in this conversation. It seems to&amp;nbsp;be going well so far, at least.&lt;/i&gt;&lt;span style=&quot;background-color: transparent; color: light-dark(rgb(0, 0, 0), rgb(255, 255, 255));&quot;&gt;&quot;&lt;/span&gt;" style="rounded=0;whiteSpace=wrap;html=1;align=left;spacing=10;" vertex="1" parent="1">
          <mxGeometry x="40" y="990" width="790" height="40" as="geometry" />
        </mxCell>
        <mxCell id="hUQX8ODWX4tmyuytHKku-28" value="alex &quot;That unit has been empty for a solid year. Also, don&#39;t worry about the noise. It&#39;s not often we get early morning noise, but I&#39;m sure it&#39;ll be all good once you&#39;re all unpacked.&quot;" style="rounded=0;whiteSpace=wrap;html=1;fillColor=#e1d5e7;strokeColor=#9673a6;movable=1;resizable=1;rotatable=1;deletable=1;editable=1;locked=0;connectable=1;align=left;spacing=10;" vertex="1" parent="1">
          <mxGeometry x="40" y="1040" width="790" height="50" as="geometry" />
        </mxCell>
        <mxCell id="hUQX8ODWX4tmyuytHKku-30" value="&lt;font style=&quot;color: rgb(0, 0, 0);&quot;&gt;claudia &quot;&lt;span style=&quot;background-color: transparent;&quot;&gt;&lt;font style=&quot;&quot;&gt;&lt;font style=&quot;&quot;&gt;&lt;font style=&quot;&quot;&gt;The unit&#39;s been empty for a whole year? I better get to deep-cleaning it then. I can&#39;t stand when grime builds up, and you know that maintenance doesn&#39;t do upkeep with empty units.&quot;&lt;/font&gt;&lt;/font&gt;&lt;/font&gt;&lt;/span&gt;&lt;/font&gt;" style="rounded=0;whiteSpace=wrap;html=1;fillColor=#ffe6cc;strokeColor=#d79b00;movable=1;resizable=1;rotatable=1;deletable=1;editable=1;locked=0;connectable=1;align=left;spacing=10;" vertex="1" parent="1">
          <mxGeometry x="40" y="1100" width="790" height="50" as="geometry" />
        </mxCell>
        <mxCell id="hUQX8ODWX4tmyuytHKku-31" value="&quot;&lt;span style=&quot;background-color: transparent;&quot;&gt;&lt;i&gt;I can&#39;t tell if she&#39;s excited or if she&#39;s upset. I probably shouldn&#39;t ask, just in case.&lt;/i&gt;&lt;font color=&quot;rgba(0, 0, 0, 0)&quot;&gt;&quot;&lt;/font&gt;&lt;/span&gt;" style="rounded=0;whiteSpace=wrap;html=1;align=left;spacing=10;" vertex="1" parent="1">
          <mxGeometry x="40" y="1160" width="790" height="40" as="geometry" />
        </mxCell>
        <mxCell id="hUQX8ODWX4tmyuytHKku-32" value="alex &quot;I get what you mean, it can be a struggle sometimes to pick up the slack for lazy apartment managers, right?&quot;" style="rounded=0;whiteSpace=wrap;html=1;fillColor=#e1d5e7;strokeColor=#9673a6;movable=1;resizable=1;rotatable=1;deletable=1;editable=1;locked=0;connectable=1;align=left;spacing=10;" vertex="1" parent="1">
          <mxGeometry x="40" y="1210" width="790" height="50" as="geometry" />
        </mxCell>
        <mxCell id="hUQX8ODWX4tmyuytHKku-33" value="&lt;font style=&quot;color: rgb(0, 0, 0);&quot;&gt;claudia &quot;&lt;span style=&quot;background-color: transparent;&quot;&gt;&lt;font style=&quot;&quot;&gt;&lt;font style=&quot;&quot;&gt;&lt;font style=&quot;&quot;&gt;Heh... Yeah, it is.&quot;&lt;/font&gt;&lt;/font&gt;&lt;/font&gt;&lt;/span&gt;&lt;/font&gt;" style="rounded=0;whiteSpace=wrap;html=1;fillColor=#ffe6cc;strokeColor=#d79b00;movable=1;resizable=1;rotatable=1;deletable=1;editable=1;locked=0;connectable=1;align=left;spacing=10;" vertex="1" parent="1">
          <mxGeometry x="40" y="1270" width="790" height="40" as="geometry" />
        </mxCell>
        <mxCell id="hUQX8ODWX4tmyuytHKku-34" value="&quot;&lt;span style=&quot;background-color: transparent;&quot;&gt;&lt;font&gt;&lt;i&gt;It looks like she&#39;s struggling to keep a straight face. Is she sad, upset, or neutral? I can&#39;t get a good read on her.&quot;&lt;br&gt;&lt;/i&gt;&lt;/font&gt;&lt;/span&gt;" style="rounded=0;whiteSpace=wrap;html=1;align=left;spacing=10;" vertex="1" parent="1">
          <mxGeometry x="40" y="1320" width="790" height="40" as="geometry" />
        </mxCell>
        <mxCell id="hUQX8ODWX4tmyuytHKku-35" value="&lt;font style=&quot;color: rgb(0, 0, 0);&quot;&gt;claudia &quot;&lt;span style=&quot;background-color: transparent;&quot;&gt;&lt;font style=&quot;&quot;&gt;&lt;font style=&quot;&quot;&gt;&lt;font style=&quot;&quot;&gt;So... you&#39;ve lived here for a while?&quot;&lt;/font&gt;&lt;/font&gt;&lt;/font&gt;&lt;/span&gt;&lt;/font&gt;" style="rounded=0;whiteSpace=wrap;html=1;fillColor=#ffe6cc;strokeColor=#d79b00;movable=1;resizable=1;rotatable=1;deletable=1;editable=1;locked=0;connectable=1;align=left;spacing=10;" vertex="1" parent="1">
          <mxGeometry x="40" y="1370" width="790" height="40" as="geometry" />
        </mxCell>
        <mxCell id="hUQX8ODWX4tmyuytHKku-36" value="alex &quot;Yeah, I&#39;ve been here for about three years now.&quot;" style="rounded=0;whiteSpace=wrap;html=1;fillColor=#e1d5e7;strokeColor=#9673a6;movable=1;resizable=1;rotatable=1;deletable=1;editable=1;locked=0;connectable=1;align=left;spacing=10;" vertex="1" parent="1">
          <mxGeometry x="40" y="1420" width="790" height="50" as="geometry" />
        </mxCell>
        <mxCell id="hUQX8ODWX4tmyuytHKku-37" value="&quot;&lt;span style=&quot;background-color: transparent;&quot;&gt;&lt;font&gt;&lt;i&gt;She has a small smile on her face. Maybe she isn&#39;t all too mad? I wonder if I did anything to make her upset...&quot;&lt;br&gt;&lt;/i&gt;&lt;/font&gt;&lt;/span&gt;" style="rounded=0;whiteSpace=wrap;html=1;align=left;spacing=10;" vertex="1" parent="1">
          <mxGeometry x="40" y="1480" width="790" height="40" as="geometry" />
        </mxCell>
        <mxCell id="hUQX8ODWX4tmyuytHKku-38" value="&lt;font style=&quot;color: rgb(0, 0, 0);&quot;&gt;claudia &quot;&lt;span style=&quot;background-color: transparent;&quot;&gt;&lt;font style=&quot;&quot;&gt;&lt;font style=&quot;&quot;&gt;&lt;font style=&quot;&quot;&gt;There aren&#39;t any roaches here, right?&quot;&lt;/font&gt;&lt;/font&gt;&lt;/font&gt;&lt;/span&gt;&lt;/font&gt;" style="rounded=0;whiteSpace=wrap;html=1;fillColor=#ffe6cc;strokeColor=#d79b00;movable=1;resizable=1;rotatable=1;deletable=1;editable=1;locked=0;connectable=1;align=left;spacing=10;" vertex="1" parent="1">
          <mxGeometry x="40" y="1530" width="790" height="40" as="geometry" />
        </mxCell>
        <mxCell id="hUQX8ODWX4tmyuytHKku-39" value="alex &quot;Oh, no! They have pest control come out here every week, so we don&#39;t have any pests like that around here.&quot;" style="rounded=0;whiteSpace=wrap;html=1;fillColor=#e1d5e7;strokeColor=#9673a6;movable=1;resizable=1;rotatable=1;deletable=1;editable=1;locked=0;connectable=1;align=left;spacing=10;" vertex="1" parent="1">
          <mxGeometry x="40" y="1580" width="790" height="50" as="geometry" />
        </mxCell>
        <mxCell id="hUQX8ODWX4tmyuytHKku-40" value="&lt;font style=&quot;color: rgb(0, 0, 0);&quot;&gt;claudia &quot;&lt;span style=&quot;background-color: transparent;&quot;&gt;&lt;font style=&quot;&quot;&gt;&lt;font style=&quot;&quot;&gt;&lt;font style=&quot;&quot;&gt;That&#39;s great. The place before the one I just moved from had a {sc=3}p r e t t y b a d{/sc} infestation. You can thank the hoarder neighbors for that.&quot;&lt;/font&gt;&lt;/font&gt;&lt;/font&gt;&lt;/span&gt;&lt;/font&gt;" style="rounded=0;whiteSpace=wrap;html=1;fillColor=#ffe6cc;strokeColor=#d79b00;movable=1;resizable=1;rotatable=1;deletable=1;editable=1;locked=0;connectable=1;align=left;spacing=10;" vertex="1" parent="1">
          <mxGeometry x="40" y="1640" width="790" height="40" as="geometry" />
        </mxCell>
        <mxCell id="hUQX8ODWX4tmyuytHKku-41" value="&lt;font style=&quot;color: rgb(0, 0, 0);&quot;&gt;claudia &quot;&lt;span style=&quot;background-color: transparent;&quot;&gt;&lt;font style=&quot;&quot;&gt;&lt;font style=&quot;&quot;&gt;&lt;font style=&quot;&quot;&gt;Anyways, I&#39;d better start unpacking and cleaning. I&#39;ll see you later!&quot;&lt;/font&gt;&lt;/font&gt;&lt;/font&gt;&lt;/span&gt;&lt;/font&gt;" style="rounded=0;whiteSpace=wrap;html=1;fillColor=#ffe6cc;strokeColor=#d79b00;movable=1;resizable=1;rotatable=1;deletable=1;editable=1;locked=0;connectable=1;align=left;spacing=10;" vertex="1" parent="1">
          <mxGeometry x="40" y="1690" width="790" height="40" as="geometry" />
        </mxCell>
        <mxCell id="hUQX8ODWX4tmyuytHKku-42" value="alex &quot;See you later!&quot;" style="rounded=0;whiteSpace=wrap;html=1;fillColor=#e1d5e7;strokeColor=#9673a6;movable=1;resizable=1;rotatable=1;deletable=1;editable=1;locked=0;connectable=1;align=left;spacing=10;" vertex="1" parent="1">
          <mxGeometry x="40" y="1740" width="790" height="50" as="geometry" />
        </mxCell>
        <mxCell id="hUQX8ODWX4tmyuytHKku-43" value="&lt;span style=&quot;background-color: transparent;&quot;&gt;&lt;font&gt;&lt;i&gt;&quot;&lt;/i&gt;&lt;/font&gt;&lt;/span&gt;&lt;i style=&quot;background-color: transparent; color: light-dark(rgb(0, 0, 0), rgb(255, 255, 255));&quot;&gt;I should probably start heading off. I might be cutting it kinda close, actually...&quot;&lt;/i&gt;" style="rounded=0;whiteSpace=wrap;html=1;align=left;spacing=10;" vertex="1" parent="1">
          <mxGeometry x="40" y="1800" width="790" height="40" as="geometry" />
        </mxCell>
        <mxCell id="hUQX8ODWX4tmyuytHKku-44" value="&lt;i&gt;&quot;… See you later? That&#39;s nice. I didn&#39;t think I&#39;d get along with someone new so easily. Hopefully that&#39;s a good sign. Maybe she&#39;ll be my way to break out of my shell and start socializing with new people? I felt pretty awkward when talking to her though... It&#39;s good to know she&#39;s interested in getting to know me more. I think it&#39;d do me good to make a new friend.&quot;&lt;/i&gt;" style="rounded=0;whiteSpace=wrap;html=1;align=left;spacing=10;" vertex="1" parent="1">
          <mxGeometry x="40" y="1850" width="790" height="70" as="geometry" />
        </mxCell>
        <mxCell id="hUQX8ODWX4tmyuytHKku-45" value="&lt;i&gt;&quot;I didn&#39;t spend as much time as I wanted to on my journaling this morning. Maybe if I just spend a couple of minutes doing it now, no one will notice.&quot;&lt;/i&gt;" style="rounded=0;whiteSpace=wrap;html=1;align=left;spacing=10;" vertex="1" parent="1">
          <mxGeometry x="40" y="1980" width="790" height="40" as="geometry" />
        </mxCell>
        <mxCell id="hUQX8ODWX4tmyuytHKku-47" value="alexJournal &quot;8:02 AM&lt;span style=&quot;background-color: transparent; color: light-dark(rgb(255, 255, 255), rgb(18, 18, 18));&quot;&gt;&quot;&lt;/span&gt;" style="rounded=0;whiteSpace=wrap;html=1;fillColor=#647687;strokeColor=#314354;movable=1;resizable=1;rotatable=1;deletable=1;editable=1;locked=0;connectable=1;align=left;spacing=10;fontColor=#ffffff;" vertex="1" parent="1">
          <mxGeometry x="40" y="2030" width="790" height="40" as="geometry" />
        </mxCell>
        <mxCell id="hUQX8ODWX4tmyuytHKku-48" value="alexJournal &quot;I have something on my mind, or rather someone. I have a new neighbor that moved in to the unit right next to me. Her name is Claudia and I was able to say hi to her right as her friend drove off with the moving van. She and her friend were making a lot of noise when moving things inside the unit but it&#39;s not very common. She seems very nice but I think she got uncomfortable during the conversation at some point. She wasn&#39;t able to keep her facial expression consistent sometimes, so it was kind of hard to read her.&lt;span style=&quot;background-color: transparent; color: light-dark(rgb(255, 255, 255), rgb(18, 18, 18));&quot;&gt;&quot;&lt;/span&gt;" style="rounded=0;whiteSpace=wrap;html=1;fillColor=#647687;strokeColor=#314354;movable=1;resizable=1;rotatable=1;deletable=1;editable=1;locked=0;connectable=1;align=left;spacing=10;fontColor=#ffffff;" vertex="1" parent="1">
          <mxGeometry x="40" y="2080" width="790" height="80" as="geometry" />
        </mxCell>
        <mxCell id="hUQX8ODWX4tmyuytHKku-49" value="alexJournal &quot;Something sticks out about her though... I just can&#39;t tell what it is exactly. I think I&#39;ll talk with Tsukune about her later. After all, it would be nice if we ended up becoming friends. I don&#39;t think friendships start that fast though, so maybe it&#39;ll take some time.&lt;span style=&quot;background-color: transparent; color: light-dark(rgb(255, 255, 255), rgb(18, 18, 18));&quot;&gt;&quot;&lt;/span&gt;" style="rounded=0;whiteSpace=wrap;html=1;fillColor=#647687;strokeColor=#314354;movable=1;resizable=1;rotatable=1;deletable=1;editable=1;locked=0;connectable=1;align=left;spacing=10;fontColor=#ffffff;" vertex="1" parent="1">
          <mxGeometry x="40" y="2170" width="790" height="50" as="geometry" />
        </mxCell>
        <mxCell id="hUQX8ODWX4tmyuytHKku-50" value="&lt;span style=&quot;background-color: transparent;&quot;&gt;&lt;font&gt;&lt;i&gt;&quot;&lt;/i&gt;&lt;/font&gt;&lt;/span&gt;&lt;i style=&quot;background-color: transparent; color: light-dark(rgb(0, 0, 0), rgb(255, 255, 255));&quot;&gt;Oh shit, Tsukune&#39;s coming!&quot;&lt;/i&gt;" style="rounded=0;whiteSpace=wrap;html=1;align=left;spacing=10;" vertex="1" parent="1">
          <mxGeometry x="40" y="2230" width="790" height="40" as="geometry" />
        </mxCell>
        <mxCell id="hUQX8ODWX4tmyuytHKku-51" value="tsukune &quot;Hey Alex, how&#39;s your morning going so far?&quot;" style="rounded=0;whiteSpace=wrap;html=1;fillColor=#dae8fc;strokeColor=#6c8ebf;movable=1;resizable=1;rotatable=1;deletable=1;editable=1;locked=0;connectable=1;align=left;spacing=10;" vertex="1" parent="1">
          <mxGeometry x="40" y="2280" width="790" height="40" as="geometry" />
        </mxCell>
        <mxCell id="hUQX8ODWX4tmyuytHKku-52" value="alex &quot;I&#39;m doing pretty good, I found out I have a new neighbor this morning. You&#39;re pretty upbeat like usual, how&#39;s your morning?&quot;" style="rounded=0;whiteSpace=wrap;html=1;fillColor=#e1d5e7;strokeColor=#9673a6;movable=1;resizable=1;rotatable=1;deletable=1;editable=1;locked=0;connectable=1;align=left;spacing=10;" vertex="1" parent="1">
          <mxGeometry x="40" y="2330" width="790" height="40" as="geometry" />
        </mxCell>
        <mxCell id="hUQX8ODWX4tmyuytHKku-53" value="tsukune &quot;So, I had to take the bus to get to work today. Yesterday, my car&#39;s AC compressor seized up and snapped the serpentine belt, so now my car&#39;s in the shop until they get the parts delivered to replace what got trashed.&quot;" style="rounded=0;whiteSpace=wrap;html=1;fillColor=#dae8fc;strokeColor=#6c8ebf;movable=1;resizable=1;rotatable=1;deletable=1;editable=1;locked=0;connectable=1;align=left;spacing=10;" vertex="1" parent="1">
          <mxGeometry x="40" y="2380" width="790" height="50" as="geometry" />
        </mxCell>
        <mxCell id="hUQX8ODWX4tmyuytHKku-54" value="alex &quot;How much did it cost to get here by bus?&quot;" style="rounded=0;whiteSpace=wrap;html=1;fillColor=#e1d5e7;strokeColor=#9673a6;movable=1;resizable=1;rotatable=1;deletable=1;editable=1;locked=0;connectable=1;align=left;spacing=10;" vertex="1" parent="1">
          <mxGeometry x="40" y="2440" width="790" height="40" as="geometry" />
        </mxCell>
        <mxCell id="hUQX8ODWX4tmyuytHKku-55" value="tsukune &quot;It was about $3.50 just to get here, but I had to use coins or cash. They don&#39;t do card, which sucks. I&#39;ll live though. It could be a lot more expensive like in some other cities.&quot;" style="rounded=0;whiteSpace=wrap;html=1;fillColor=#dae8fc;strokeColor=#6c8ebf;movable=1;resizable=1;rotatable=1;deletable=1;editable=1;locked=0;connectable=1;align=left;spacing=10;" vertex="1" parent="1">
          <mxGeometry x="40" y="2490" width="790" height="50" as="geometry" />
        </mxCell>
        <mxCell id="hUQX8ODWX4tmyuytHKku-56" value="tsukune &quot;Ah, I should probably get to my desk now. Don&#39;t wanna get in any trouble.&quot;" style="rounded=0;whiteSpace=wrap;html=1;fillColor=#dae8fc;strokeColor=#6c8ebf;movable=1;resizable=1;rotatable=1;deletable=1;editable=1;locked=0;connectable=1;align=left;spacing=10;" vertex="1" parent="1">
          <mxGeometry x="40" y="2550" width="790" height="40" as="geometry" />
        </mxCell>
        <mxCell id="hUQX8ODWX4tmyuytHKku-57" value="alex &quot;Wait, before you go, I can take you to and from work until your car is fixed! We live in the same apartment complex after all.&quot;" style="rounded=0;whiteSpace=wrap;html=1;fillColor=#e1d5e7;strokeColor=#9673a6;movable=1;resizable=1;rotatable=1;deletable=1;editable=1;locked=0;connectable=1;align=left;spacing=10;" vertex="1" parent="1">
          <mxGeometry x="40" y="2600" width="790" height="40" as="geometry" />
        </mxCell>
        <mxCell id="hUQX8ODWX4tmyuytHKku-58" value="&lt;i&gt;&quot;I&amp;nbsp;would hate for him to waste money on the bus fare if he can just take a ride home with me instead.&quot;&lt;/i&gt;" style="rounded=0;whiteSpace=wrap;html=1;align=left;spacing=10;" vertex="1" parent="1">
          <mxGeometry x="40" y="2650" width="790" height="40" as="geometry" />
        </mxCell>
        <mxCell id="hUQX8ODWX4tmyuytHKku-59" value="tsukune &quot;Really? Are you sure that&#39;s fine? I can pay you back in gas-&quot;" style="rounded=0;whiteSpace=wrap;html=1;fillColor=#dae8fc;strokeColor=#6c8ebf;movable=1;resizable=1;rotatable=1;deletable=1;editable=1;locked=0;connectable=1;align=left;spacing=10;" vertex="1" parent="1">
          <mxGeometry x="40" y="2700" width="790" height="40" as="geometry" />
        </mxCell>
        <mxCell id="hUQX8ODWX4tmyuytHKku-60" value="alex &quot;Don&#39;t worry about it, it&#39;s on me. I wanna help you out if I can, and it&#39;s not like I&#39;m going out of my way to take you home. I&#39;m still doing the same drive as usual, just with an extra person in the car with me.&quot;" style="rounded=0;whiteSpace=wrap;html=1;fillColor=#e1d5e7;strokeColor=#9673a6;movable=1;resizable=1;rotatable=1;deletable=1;editable=1;locked=0;connectable=1;align=left;spacing=10;" vertex="1" parent="1">
          <mxGeometry x="40" y="2750" width="790" height="40" as="geometry" />
        </mxCell>
        <mxCell id="hUQX8ODWX4tmyuytHKku-61" value="tsukune &quot;You&#39;re a great friend, Alex. I&#39;ll meet you after work, alright?&quot;" style="rounded=0;whiteSpace=wrap;html=1;fillColor=#dae8fc;strokeColor=#6c8ebf;movable=1;resizable=1;rotatable=1;deletable=1;editable=1;locked=0;connectable=1;align=left;spacing=10;" vertex="1" parent="1">
          <mxGeometry x="40" y="2800" width="790" height="40" as="geometry" />
        </mxCell>
        <mxCell id="hUQX8ODWX4tmyuytHKku-62" value="&lt;i&gt;&quot;Tsukune&#39;s right, we should get back to work before we get in trouble. Let&#39;s go!&quot;&lt;/i&gt;" style="rounded=0;whiteSpace=wrap;html=1;align=left;spacing=10;" vertex="1" parent="1">
          <mxGeometry x="40" y="2850" width="790" height="40" as="geometry" />
        </mxCell>
        <mxCell id="hUQX8ODWX4tmyuytHKku-63" value="label MINIGAME - racing:" style="rounded=0;whiteSpace=wrap;html=1;fillColor=#d5e8d4;strokeColor=#82b366;movable=1;resizable=1;rotatable=1;deletable=1;editable=1;locked=0;connectable=1;align=left;spacing=10;" vertex="1" parent="1">
          <mxGeometry x="20" y="1930" width="160" height="40" as="geometry" />
        </mxCell>
        <mxCell id="hUQX8ODWX4tmyuytHKku-64" value="label MINIGAME - same game (office supplies):" style="rounded=0;whiteSpace=wrap;html=1;fillColor=#d5e8d4;strokeColor=#82b366;movable=1;resizable=1;rotatable=1;deletable=1;editable=1;locked=0;connectable=1;align=left;spacing=10;" vertex="1" parent="1">
          <mxGeometry x="20" y="2900" width="280" height="40" as="geometry" />
        </mxCell>
      </root>
    </mxGraphModel>
  </diagram>
</mxfile>
